<mxfile host="app.diagrams.net" agent="Mozilla/5.0 (Windows NT 10.0; Win64; x64) AppleWebKit/537.36 (KHTML, like Gecko) Chrome/131.0.0.0 Safari/537.36" version="26.0.2">
  <diagram id="R2lEEEUBdFMjLlhIrx00" name="Page-1">
    <mxGraphModel dx="3086" dy="2709" grid="1" gridSize="10" guides="1" tooltips="1" connect="1" arrows="1" fold="1" page="1" pageScale="1" pageWidth="850" pageHeight="1100" math="0" shadow="0" extFonts="Permanent Marker^https://fonts.googleapis.com/css?family=Permanent+Marker">
      <root>
        <mxCell id="0" />
        <mxCell id="1" parent="0" />
        <mxCell id="YktuZhn3uDdsjPysNcHp-1" value="User" style="shape=table;startSize=30;container=1;collapsible=1;childLayout=tableLayout;fixedRows=1;rowLines=0;fontStyle=1;align=center;resizeLast=1;html=1;fillColor=#d5e8d4;strokeColor=#82b366;" vertex="1" parent="1">
          <mxGeometry x="120" y="150" width="210" height="180" as="geometry" />
        </mxCell>
        <mxCell id="YktuZhn3uDdsjPysNcHp-2" value="" style="shape=tableRow;horizontal=0;startSize=0;swimlaneHead=0;swimlaneBody=0;fillColor=none;collapsible=0;dropTarget=0;points=[[0,0.5],[1,0.5]];portConstraint=eastwest;top=0;left=0;right=0;bottom=1;" vertex="1" parent="YktuZhn3uDdsjPysNcHp-1">
          <mxGeometry y="30" width="210" height="30" as="geometry" />
        </mxCell>
        <mxCell id="YktuZhn3uDdsjPysNcHp-3" value="PK" style="shape=partialRectangle;connectable=0;fillColor=#dae8fc;top=0;left=0;bottom=0;right=0;fontStyle=1;overflow=hidden;whiteSpace=wrap;html=1;strokeColor=#6c8ebf;" vertex="1" parent="YktuZhn3uDdsjPysNcHp-2">
          <mxGeometry width="30" height="30" as="geometry">
            <mxRectangle width="30" height="30" as="alternateBounds" />
          </mxGeometry>
        </mxCell>
        <mxCell id="YktuZhn3uDdsjPysNcHp-4" value="User Name" style="shape=partialRectangle;connectable=0;fillColor=#dae8fc;top=0;left=0;bottom=0;right=0;align=center;spacingLeft=6;fontStyle=5;overflow=hidden;whiteSpace=wrap;html=1;strokeColor=#6c8ebf;" vertex="1" parent="YktuZhn3uDdsjPysNcHp-2">
          <mxGeometry x="30" width="180" height="30" as="geometry">
            <mxRectangle width="180" height="30" as="alternateBounds" />
          </mxGeometry>
        </mxCell>
        <mxCell id="YktuZhn3uDdsjPysNcHp-5" value="" style="shape=tableRow;horizontal=0;startSize=0;swimlaneHead=0;swimlaneBody=0;fillColor=none;collapsible=0;dropTarget=0;points=[[0,0.5],[1,0.5]];portConstraint=eastwest;top=0;left=0;right=0;bottom=0;" vertex="1" parent="YktuZhn3uDdsjPysNcHp-1">
          <mxGeometry y="60" width="210" height="30" as="geometry" />
        </mxCell>
        <mxCell id="YktuZhn3uDdsjPysNcHp-6" value="" style="shape=partialRectangle;connectable=0;fillColor=none;top=0;left=0;bottom=0;right=0;editable=1;overflow=hidden;whiteSpace=wrap;html=1;" vertex="1" parent="YktuZhn3uDdsjPysNcHp-5">
          <mxGeometry width="30" height="30" as="geometry">
            <mxRectangle width="30" height="30" as="alternateBounds" />
          </mxGeometry>
        </mxCell>
        <mxCell id="YktuZhn3uDdsjPysNcHp-7" value="First Name" style="shape=partialRectangle;connectable=0;fillColor=none;top=0;left=0;bottom=0;right=0;align=left;spacingLeft=6;overflow=hidden;whiteSpace=wrap;html=1;" vertex="1" parent="YktuZhn3uDdsjPysNcHp-5">
          <mxGeometry x="30" width="180" height="30" as="geometry">
            <mxRectangle width="180" height="30" as="alternateBounds" />
          </mxGeometry>
        </mxCell>
        <mxCell id="YktuZhn3uDdsjPysNcHp-8" value="" style="shape=tableRow;horizontal=0;startSize=0;swimlaneHead=0;swimlaneBody=0;fillColor=none;collapsible=0;dropTarget=0;points=[[0,0.5],[1,0.5]];portConstraint=eastwest;top=0;left=0;right=0;bottom=0;" vertex="1" parent="YktuZhn3uDdsjPysNcHp-1">
          <mxGeometry y="90" width="210" height="30" as="geometry" />
        </mxCell>
        <mxCell id="YktuZhn3uDdsjPysNcHp-9" value="" style="shape=partialRectangle;connectable=0;fillColor=none;top=0;left=0;bottom=0;right=0;editable=1;overflow=hidden;whiteSpace=wrap;html=1;" vertex="1" parent="YktuZhn3uDdsjPysNcHp-8">
          <mxGeometry width="30" height="30" as="geometry">
            <mxRectangle width="30" height="30" as="alternateBounds" />
          </mxGeometry>
        </mxCell>
        <mxCell id="YktuZhn3uDdsjPysNcHp-10" value="Last Name" style="shape=partialRectangle;connectable=0;fillColor=none;top=0;left=0;bottom=0;right=0;align=left;spacingLeft=6;overflow=hidden;whiteSpace=wrap;html=1;" vertex="1" parent="YktuZhn3uDdsjPysNcHp-8">
          <mxGeometry x="30" width="180" height="30" as="geometry">
            <mxRectangle width="180" height="30" as="alternateBounds" />
          </mxGeometry>
        </mxCell>
        <mxCell id="YktuZhn3uDdsjPysNcHp-11" value="" style="shape=tableRow;horizontal=0;startSize=0;swimlaneHead=0;swimlaneBody=0;fillColor=none;collapsible=0;dropTarget=0;points=[[0,0.5],[1,0.5]];portConstraint=eastwest;top=0;left=0;right=0;bottom=0;" vertex="1" parent="YktuZhn3uDdsjPysNcHp-1">
          <mxGeometry y="120" width="210" height="30" as="geometry" />
        </mxCell>
        <mxCell id="YktuZhn3uDdsjPysNcHp-12" value="" style="shape=partialRectangle;connectable=0;fillColor=none;top=0;left=0;bottom=0;right=0;editable=1;overflow=hidden;whiteSpace=wrap;html=1;" vertex="1" parent="YktuZhn3uDdsjPysNcHp-11">
          <mxGeometry width="30" height="30" as="geometry">
            <mxRectangle width="30" height="30" as="alternateBounds" />
          </mxGeometry>
        </mxCell>
        <mxCell id="YktuZhn3uDdsjPysNcHp-13" value="Email" style="shape=partialRectangle;connectable=0;fillColor=none;top=0;left=0;bottom=0;right=0;align=left;spacingLeft=6;overflow=hidden;whiteSpace=wrap;html=1;labelBorderColor=none;labelBackgroundColor=none;" vertex="1" parent="YktuZhn3uDdsjPysNcHp-11">
          <mxGeometry x="30" width="180" height="30" as="geometry">
            <mxRectangle width="180" height="30" as="alternateBounds" />
          </mxGeometry>
        </mxCell>
        <mxCell id="YktuZhn3uDdsjPysNcHp-15" value="" style="shape=tableRow;horizontal=0;startSize=0;swimlaneHead=0;swimlaneBody=0;fillColor=none;collapsible=0;dropTarget=0;points=[[0,0.5],[1,0.5]];portConstraint=eastwest;top=0;left=0;right=0;bottom=0;" vertex="1" parent="YktuZhn3uDdsjPysNcHp-1">
          <mxGeometry y="150" width="210" height="30" as="geometry" />
        </mxCell>
        <mxCell id="YktuZhn3uDdsjPysNcHp-16" value="" style="shape=partialRectangle;connectable=0;fillColor=none;top=0;left=0;bottom=0;right=0;editable=1;overflow=hidden;whiteSpace=wrap;html=1;" vertex="1" parent="YktuZhn3uDdsjPysNcHp-15">
          <mxGeometry width="30" height="30" as="geometry">
            <mxRectangle width="30" height="30" as="alternateBounds" />
          </mxGeometry>
        </mxCell>
        <mxCell id="YktuZhn3uDdsjPysNcHp-17" value="Password" style="shape=partialRectangle;connectable=0;fillColor=none;top=0;left=0;bottom=0;right=0;align=left;spacingLeft=6;overflow=hidden;whiteSpace=wrap;html=1;" vertex="1" parent="YktuZhn3uDdsjPysNcHp-15">
          <mxGeometry x="30" width="180" height="30" as="geometry">
            <mxRectangle width="180" height="30" as="alternateBounds" />
          </mxGeometry>
        </mxCell>
        <mxCell id="YktuZhn3uDdsjPysNcHp-20" value="Person" style="shape=table;startSize=30;container=1;collapsible=1;childLayout=tableLayout;fixedRows=1;rowLines=0;fontStyle=1;align=center;resizeLast=1;html=1;whiteSpace=wrap;fillColor=#d5e8d4;strokeColor=#82b366;" vertex="1" parent="1">
          <mxGeometry x="450" y="150" width="180" height="180" as="geometry" />
        </mxCell>
        <mxCell id="YktuZhn3uDdsjPysNcHp-21" value="" style="shape=tableRow;horizontal=0;startSize=0;swimlaneHead=0;swimlaneBody=0;fillColor=none;collapsible=0;dropTarget=0;points=[[0,0.5],[1,0.5]];portConstraint=eastwest;top=0;left=0;right=0;bottom=0;html=1;" vertex="1" parent="YktuZhn3uDdsjPysNcHp-20">
          <mxGeometry y="30" width="180" height="30" as="geometry" />
        </mxCell>
        <mxCell id="YktuZhn3uDdsjPysNcHp-22" value="F.K" style="shape=partialRectangle;connectable=0;fillColor=#dae8fc;top=0;left=0;bottom=0;right=0;fontStyle=1;overflow=hidden;html=1;whiteSpace=wrap;strokeColor=#6c8ebf;" vertex="1" parent="YktuZhn3uDdsjPysNcHp-21">
          <mxGeometry width="60" height="30" as="geometry">
            <mxRectangle width="60" height="30" as="alternateBounds" />
          </mxGeometry>
        </mxCell>
        <mxCell id="YktuZhn3uDdsjPysNcHp-23" value="User" style="shape=partialRectangle;connectable=0;fillColor=#dae8fc;top=0;left=0;bottom=0;right=0;align=left;spacingLeft=6;fontStyle=5;overflow=hidden;html=1;whiteSpace=wrap;strokeColor=#6c8ebf;" vertex="1" parent="YktuZhn3uDdsjPysNcHp-21">
          <mxGeometry x="60" width="120" height="30" as="geometry">
            <mxRectangle width="120" height="30" as="alternateBounds" />
          </mxGeometry>
        </mxCell>
        <mxCell id="YktuZhn3uDdsjPysNcHp-27" value="" style="shape=tableRow;horizontal=0;startSize=0;swimlaneHead=0;swimlaneBody=0;fillColor=none;collapsible=0;dropTarget=0;points=[[0,0.5],[1,0.5]];portConstraint=eastwest;top=0;left=0;right=0;bottom=0;html=1;" vertex="1" parent="YktuZhn3uDdsjPysNcHp-20">
          <mxGeometry y="60" width="180" height="30" as="geometry" />
        </mxCell>
        <mxCell id="YktuZhn3uDdsjPysNcHp-28" value="" style="shape=partialRectangle;connectable=0;fillColor=none;top=0;left=0;bottom=0;right=0;editable=1;overflow=hidden;html=1;whiteSpace=wrap;" vertex="1" parent="YktuZhn3uDdsjPysNcHp-27">
          <mxGeometry width="60" height="30" as="geometry">
            <mxRectangle width="60" height="30" as="alternateBounds" />
          </mxGeometry>
        </mxCell>
        <mxCell id="YktuZhn3uDdsjPysNcHp-29" value="Personal Details" style="shape=partialRectangle;connectable=0;fillColor=none;top=0;left=0;bottom=0;right=0;align=left;spacingLeft=6;overflow=hidden;html=1;whiteSpace=wrap;" vertex="1" parent="YktuZhn3uDdsjPysNcHp-27">
          <mxGeometry x="60" width="120" height="30" as="geometry">
            <mxRectangle width="120" height="30" as="alternateBounds" />
          </mxGeometry>
        </mxCell>
        <mxCell id="YktuZhn3uDdsjPysNcHp-30" value="" style="shape=tableRow;horizontal=0;startSize=0;swimlaneHead=0;swimlaneBody=0;fillColor=none;collapsible=0;dropTarget=0;points=[[0,0.5],[1,0.5]];portConstraint=eastwest;top=0;left=0;right=0;bottom=0;html=1;" vertex="1" parent="YktuZhn3uDdsjPysNcHp-20">
          <mxGeometry y="90" width="180" height="30" as="geometry" />
        </mxCell>
        <mxCell id="YktuZhn3uDdsjPysNcHp-31" value="" style="shape=partialRectangle;connectable=0;fillColor=none;top=0;left=0;bottom=0;right=0;editable=1;overflow=hidden;html=1;whiteSpace=wrap;" vertex="1" parent="YktuZhn3uDdsjPysNcHp-30">
          <mxGeometry width="60" height="30" as="geometry">
            <mxRectangle width="60" height="30" as="alternateBounds" />
          </mxGeometry>
        </mxCell>
        <mxCell id="YktuZhn3uDdsjPysNcHp-32" value="Bio Data" style="shape=partialRectangle;connectable=0;fillColor=none;top=0;left=0;bottom=0;right=0;align=left;spacingLeft=6;overflow=hidden;html=1;whiteSpace=wrap;" vertex="1" parent="YktuZhn3uDdsjPysNcHp-30">
          <mxGeometry x="60" width="120" height="30" as="geometry">
            <mxRectangle width="120" height="30" as="alternateBounds" />
          </mxGeometry>
        </mxCell>
        <mxCell id="YktuZhn3uDdsjPysNcHp-33" value="" style="shape=tableRow;horizontal=0;startSize=0;swimlaneHead=0;swimlaneBody=0;fillColor=none;collapsible=0;dropTarget=0;points=[[0,0.5],[1,0.5]];portConstraint=eastwest;top=0;left=0;right=0;bottom=0;html=1;" vertex="1" parent="YktuZhn3uDdsjPysNcHp-20">
          <mxGeometry y="120" width="180" height="30" as="geometry" />
        </mxCell>
        <mxCell id="YktuZhn3uDdsjPysNcHp-34" value="" style="shape=partialRectangle;connectable=0;fillColor=none;top=0;left=0;bottom=0;right=0;editable=1;overflow=hidden;html=1;whiteSpace=wrap;" vertex="1" parent="YktuZhn3uDdsjPysNcHp-33">
          <mxGeometry width="60" height="30" as="geometry">
            <mxRectangle width="60" height="30" as="alternateBounds" />
          </mxGeometry>
        </mxCell>
        <mxCell id="YktuZhn3uDdsjPysNcHp-35" value="Is Verified" style="shape=partialRectangle;connectable=0;fillColor=none;top=0;left=0;bottom=0;right=0;align=left;spacingLeft=6;overflow=hidden;html=1;whiteSpace=wrap;" vertex="1" parent="YktuZhn3uDdsjPysNcHp-33">
          <mxGeometry x="60" width="120" height="30" as="geometry">
            <mxRectangle width="120" height="30" as="alternateBounds" />
          </mxGeometry>
        </mxCell>
        <mxCell id="YktuZhn3uDdsjPysNcHp-36" value="" style="shape=tableRow;horizontal=0;startSize=0;swimlaneHead=0;swimlaneBody=0;fillColor=none;collapsible=0;dropTarget=0;points=[[0,0.5],[1,0.5]];portConstraint=eastwest;top=0;left=0;right=0;bottom=0;html=1;" vertex="1" parent="YktuZhn3uDdsjPysNcHp-20">
          <mxGeometry y="150" width="180" height="30" as="geometry" />
        </mxCell>
        <mxCell id="YktuZhn3uDdsjPysNcHp-37" value="" style="shape=partialRectangle;connectable=0;fillColor=none;top=0;left=0;bottom=0;right=0;editable=1;overflow=hidden;html=1;whiteSpace=wrap;" vertex="1" parent="YktuZhn3uDdsjPysNcHp-36">
          <mxGeometry width="60" height="30" as="geometry">
            <mxRectangle width="60" height="30" as="alternateBounds" />
          </mxGeometry>
        </mxCell>
        <mxCell id="YktuZhn3uDdsjPysNcHp-38" value="Experience" style="shape=partialRectangle;connectable=0;fillColor=none;top=0;left=0;bottom=0;right=0;align=left;spacingLeft=6;overflow=hidden;html=1;whiteSpace=wrap;" vertex="1" parent="YktuZhn3uDdsjPysNcHp-36">
          <mxGeometry x="60" width="120" height="30" as="geometry">
            <mxRectangle width="120" height="30" as="alternateBounds" />
          </mxGeometry>
        </mxCell>
        <mxCell id="YktuZhn3uDdsjPysNcHp-132" value="" style="shape=tableRow;horizontal=0;startSize=0;swimlaneHead=0;swimlaneBody=0;fillColor=none;collapsible=0;dropTarget=0;points=[[0,0.5],[1,0.5]];portConstraint=eastwest;top=0;left=0;right=0;bottom=0;html=1;swimlaneFillColor=default;" vertex="1" parent="1">
          <mxGeometry x="730" y="360" width="180" height="30" as="geometry" />
        </mxCell>
        <mxCell id="YktuZhn3uDdsjPysNcHp-133" value="" style="shape=partialRectangle;connectable=0;fillColor=none;top=0;left=0;bottom=0;right=0;editable=1;overflow=hidden;html=1;whiteSpace=wrap;" vertex="1" parent="YktuZhn3uDdsjPysNcHp-132">
          <mxGeometry width="60" height="30" as="geometry">
            <mxRectangle width="60" height="30" as="alternateBounds" />
          </mxGeometry>
        </mxCell>
        <mxCell id="YktuZhn3uDdsjPysNcHp-135" value="Personal Details" style="shape=table;startSize=30;container=1;collapsible=1;childLayout=tableLayout;fixedRows=1;rowLines=0;fontStyle=1;align=center;resizeLast=1;html=1;whiteSpace=wrap;fillColor=#d5e8d4;strokeColor=#82b366;" vertex="1" parent="1">
          <mxGeometry x="730" y="150" width="180" height="240" as="geometry" />
        </mxCell>
        <mxCell id="YktuZhn3uDdsjPysNcHp-136" value="" style="shape=tableRow;horizontal=0;startSize=0;swimlaneHead=0;swimlaneBody=0;fillColor=none;collapsible=0;dropTarget=0;points=[[0,0.5],[1,0.5]];portConstraint=eastwest;top=0;left=0;right=0;bottom=0;html=1;" vertex="1" parent="YktuZhn3uDdsjPysNcHp-135">
          <mxGeometry y="30" width="180" height="30" as="geometry" />
        </mxCell>
        <mxCell id="YktuZhn3uDdsjPysNcHp-137" value="PK" style="shape=partialRectangle;connectable=0;fillColor=#ffe6cc;top=0;left=0;bottom=0;right=0;fontStyle=1;overflow=hidden;html=1;whiteSpace=wrap;strokeColor=#d79b00;" vertex="1" parent="YktuZhn3uDdsjPysNcHp-136">
          <mxGeometry width="60" height="30" as="geometry">
            <mxRectangle width="60" height="30" as="alternateBounds" />
          </mxGeometry>
        </mxCell>
        <mxCell id="YktuZhn3uDdsjPysNcHp-138" value="ID" style="shape=partialRectangle;connectable=0;fillColor=#ffe6cc;top=0;left=0;bottom=0;right=0;align=left;spacingLeft=6;fontStyle=5;overflow=hidden;html=1;whiteSpace=wrap;strokeColor=#d79b00;" vertex="1" parent="YktuZhn3uDdsjPysNcHp-136">
          <mxGeometry x="60" width="120" height="30" as="geometry">
            <mxRectangle width="120" height="30" as="alternateBounds" />
          </mxGeometry>
        </mxCell>
        <mxCell id="YktuZhn3uDdsjPysNcHp-139" value="" style="shape=tableRow;horizontal=0;startSize=0;swimlaneHead=0;swimlaneBody=0;fillColor=none;collapsible=0;dropTarget=0;points=[[0,0.5],[1,0.5]];portConstraint=eastwest;top=0;left=0;right=0;bottom=1;html=1;" vertex="1" parent="YktuZhn3uDdsjPysNcHp-135">
          <mxGeometry y="60" width="180" height="30" as="geometry" />
        </mxCell>
        <mxCell id="YktuZhn3uDdsjPysNcHp-140" value="FK" style="shape=partialRectangle;connectable=0;fillColor=#dae8fc;top=0;left=0;bottom=0;right=0;fontStyle=1;overflow=hidden;html=1;whiteSpace=wrap;strokeColor=#6c8ebf;" vertex="1" parent="YktuZhn3uDdsjPysNcHp-139">
          <mxGeometry width="60" height="30" as="geometry">
            <mxRectangle width="60" height="30" as="alternateBounds" />
          </mxGeometry>
        </mxCell>
        <mxCell id="YktuZhn3uDdsjPysNcHp-141" value="Person" style="shape=partialRectangle;connectable=0;fillColor=#dae8fc;top=0;left=0;bottom=0;right=0;align=left;spacingLeft=6;fontStyle=5;overflow=hidden;html=1;whiteSpace=wrap;strokeColor=#6c8ebf;" vertex="1" parent="YktuZhn3uDdsjPysNcHp-139">
          <mxGeometry x="60" width="120" height="30" as="geometry">
            <mxRectangle width="120" height="30" as="alternateBounds" />
          </mxGeometry>
        </mxCell>
        <mxCell id="YktuZhn3uDdsjPysNcHp-142" value="" style="shape=tableRow;horizontal=0;startSize=0;swimlaneHead=0;swimlaneBody=0;fillColor=none;collapsible=0;dropTarget=0;points=[[0,0.5],[1,0.5]];portConstraint=eastwest;top=0;left=0;right=0;bottom=0;html=1;" vertex="1" parent="YktuZhn3uDdsjPysNcHp-135">
          <mxGeometry y="90" width="180" height="30" as="geometry" />
        </mxCell>
        <mxCell id="YktuZhn3uDdsjPysNcHp-143" value="" style="shape=partialRectangle;connectable=0;fillColor=none;top=0;left=0;bottom=0;right=0;editable=1;overflow=hidden;html=1;whiteSpace=wrap;" vertex="1" parent="YktuZhn3uDdsjPysNcHp-142">
          <mxGeometry width="60" height="30" as="geometry">
            <mxRectangle width="60" height="30" as="alternateBounds" />
          </mxGeometry>
        </mxCell>
        <mxCell id="YktuZhn3uDdsjPysNcHp-144" value="School" style="shape=partialRectangle;connectable=0;fillColor=none;top=0;left=0;bottom=0;right=0;align=left;spacingLeft=6;overflow=hidden;html=1;whiteSpace=wrap;" vertex="1" parent="YktuZhn3uDdsjPysNcHp-142">
          <mxGeometry x="60" width="120" height="30" as="geometry">
            <mxRectangle width="120" height="30" as="alternateBounds" />
          </mxGeometry>
        </mxCell>
        <mxCell id="YktuZhn3uDdsjPysNcHp-145" value="" style="shape=tableRow;horizontal=0;startSize=0;swimlaneHead=0;swimlaneBody=0;fillColor=none;collapsible=0;dropTarget=0;points=[[0,0.5],[1,0.5]];portConstraint=eastwest;top=0;left=0;right=0;bottom=0;html=1;" vertex="1" parent="YktuZhn3uDdsjPysNcHp-135">
          <mxGeometry y="120" width="180" height="30" as="geometry" />
        </mxCell>
        <mxCell id="YktuZhn3uDdsjPysNcHp-146" value="" style="shape=partialRectangle;connectable=0;fillColor=none;top=0;left=0;bottom=0;right=0;editable=1;overflow=hidden;html=1;whiteSpace=wrap;" vertex="1" parent="YktuZhn3uDdsjPysNcHp-145">
          <mxGeometry width="60" height="30" as="geometry">
            <mxRectangle width="60" height="30" as="alternateBounds" />
          </mxGeometry>
        </mxCell>
        <mxCell id="YktuZhn3uDdsjPysNcHp-147" value="Collage" style="shape=partialRectangle;connectable=0;fillColor=none;top=0;left=0;bottom=0;right=0;align=left;spacingLeft=6;overflow=hidden;html=1;whiteSpace=wrap;" vertex="1" parent="YktuZhn3uDdsjPysNcHp-145">
          <mxGeometry x="60" width="120" height="30" as="geometry">
            <mxRectangle width="120" height="30" as="alternateBounds" />
          </mxGeometry>
        </mxCell>
        <mxCell id="YktuZhn3uDdsjPysNcHp-148" value="" style="shape=tableRow;horizontal=0;startSize=0;swimlaneHead=0;swimlaneBody=0;fillColor=none;collapsible=0;dropTarget=0;points=[[0,0.5],[1,0.5]];portConstraint=eastwest;top=0;left=0;right=0;bottom=0;html=1;" vertex="1" parent="YktuZhn3uDdsjPysNcHp-135">
          <mxGeometry y="150" width="180" height="30" as="geometry" />
        </mxCell>
        <mxCell id="YktuZhn3uDdsjPysNcHp-149" value="" style="shape=partialRectangle;connectable=0;fillColor=none;top=0;left=0;bottom=0;right=0;editable=1;overflow=hidden;html=1;whiteSpace=wrap;" vertex="1" parent="YktuZhn3uDdsjPysNcHp-148">
          <mxGeometry width="60" height="30" as="geometry">
            <mxRectangle width="60" height="30" as="alternateBounds" />
          </mxGeometry>
        </mxCell>
        <mxCell id="YktuZhn3uDdsjPysNcHp-150" value="University" style="shape=partialRectangle;connectable=0;fillColor=none;top=0;left=0;bottom=0;right=0;align=left;spacingLeft=6;overflow=hidden;html=1;whiteSpace=wrap;" vertex="1" parent="YktuZhn3uDdsjPysNcHp-148">
          <mxGeometry x="60" width="120" height="30" as="geometry">
            <mxRectangle width="120" height="30" as="alternateBounds" />
          </mxGeometry>
        </mxCell>
        <mxCell id="YktuZhn3uDdsjPysNcHp-151" value="" style="shape=tableRow;horizontal=0;startSize=0;swimlaneHead=0;swimlaneBody=0;fillColor=none;collapsible=0;dropTarget=0;points=[[0,0.5],[1,0.5]];portConstraint=eastwest;top=0;left=0;right=0;bottom=0;html=1;" vertex="1" parent="YktuZhn3uDdsjPysNcHp-135">
          <mxGeometry y="180" width="180" height="30" as="geometry" />
        </mxCell>
        <mxCell id="YktuZhn3uDdsjPysNcHp-152" value="" style="shape=partialRectangle;connectable=0;fillColor=none;top=0;left=0;bottom=0;right=0;editable=1;overflow=hidden;html=1;whiteSpace=wrap;" vertex="1" parent="YktuZhn3uDdsjPysNcHp-151">
          <mxGeometry width="60" height="30" as="geometry">
            <mxRectangle width="60" height="30" as="alternateBounds" />
          </mxGeometry>
        </mxCell>
        <mxCell id="YktuZhn3uDdsjPysNcHp-153" value="Profession" style="shape=partialRectangle;connectable=0;fillColor=none;top=0;left=0;bottom=0;right=0;align=left;spacingLeft=6;overflow=hidden;html=1;whiteSpace=wrap;" vertex="1" parent="YktuZhn3uDdsjPysNcHp-151">
          <mxGeometry x="60" width="120" height="30" as="geometry">
            <mxRectangle width="120" height="30" as="alternateBounds" />
          </mxGeometry>
        </mxCell>
        <mxCell id="YktuZhn3uDdsjPysNcHp-154" value="" style="shape=tableRow;horizontal=0;startSize=0;swimlaneHead=0;swimlaneBody=0;fillColor=none;collapsible=0;dropTarget=0;points=[[0,0.5],[1,0.5]];portConstraint=eastwest;top=0;left=0;right=0;bottom=0;html=1;" vertex="1" parent="YktuZhn3uDdsjPysNcHp-135">
          <mxGeometry y="210" width="180" height="30" as="geometry" />
        </mxCell>
        <mxCell id="YktuZhn3uDdsjPysNcHp-155" value="" style="shape=partialRectangle;connectable=0;fillColor=none;top=0;left=0;bottom=0;right=0;editable=1;overflow=hidden;html=1;whiteSpace=wrap;" vertex="1" parent="YktuZhn3uDdsjPysNcHp-154">
          <mxGeometry width="60" height="30" as="geometry">
            <mxRectangle width="60" height="30" as="alternateBounds" />
          </mxGeometry>
        </mxCell>
        <mxCell id="YktuZhn3uDdsjPysNcHp-156" value="Date of Birth" style="shape=partialRectangle;connectable=0;fillColor=none;top=0;left=0;bottom=0;right=0;align=left;spacingLeft=6;overflow=hidden;html=1;whiteSpace=wrap;" vertex="1" parent="YktuZhn3uDdsjPysNcHp-154">
          <mxGeometry x="60" width="120" height="30" as="geometry">
            <mxRectangle width="120" height="30" as="alternateBounds" />
          </mxGeometry>
        </mxCell>
        <mxCell id="YktuZhn3uDdsjPysNcHp-157" value="" style="shape=tableRow;horizontal=0;startSize=0;swimlaneHead=0;swimlaneBody=0;fillColor=none;collapsible=0;dropTarget=0;points=[[0,0.5],[1,0.5]];portConstraint=eastwest;top=0;left=0;right=0;bottom=0;html=1;swimlaneFillColor=default;" vertex="1" parent="1">
          <mxGeometry x="740" y="370" width="180" height="30" as="geometry" />
        </mxCell>
        <mxCell id="YktuZhn3uDdsjPysNcHp-158" value="" style="shape=partialRectangle;connectable=0;fillColor=none;top=0;left=0;bottom=0;right=0;editable=1;overflow=hidden;html=1;whiteSpace=wrap;" vertex="1" parent="YktuZhn3uDdsjPysNcHp-157">
          <mxGeometry width="60" height="30" as="geometry">
            <mxRectangle width="60" height="30" as="alternateBounds" />
          </mxGeometry>
        </mxCell>
        <mxCell id="YktuZhn3uDdsjPysNcHp-159" value="Collage" style="shape=table;startSize=30;container=1;collapsible=1;childLayout=tableLayout;fixedRows=1;rowLines=0;fontStyle=1;align=center;resizeLast=1;html=1;whiteSpace=wrap;fillColor=#d5e8d4;strokeColor=#82b366;" vertex="1" parent="1">
          <mxGeometry x="1170" y="300" width="180" height="210" as="geometry" />
        </mxCell>
        <mxCell id="YktuZhn3uDdsjPysNcHp-160" value="" style="shape=tableRow;horizontal=0;startSize=0;swimlaneHead=0;swimlaneBody=0;fillColor=none;collapsible=0;dropTarget=0;points=[[0,0.5],[1,0.5]];portConstraint=eastwest;top=0;left=0;right=0;bottom=0;html=1;" vertex="1" parent="YktuZhn3uDdsjPysNcHp-159">
          <mxGeometry y="30" width="180" height="30" as="geometry" />
        </mxCell>
        <mxCell id="YktuZhn3uDdsjPysNcHp-161" value="PK" style="shape=partialRectangle;connectable=0;fillColor=#ffe6cc;top=0;left=0;bottom=0;right=0;fontStyle=1;overflow=hidden;html=1;whiteSpace=wrap;strokeColor=#d79b00;" vertex="1" parent="YktuZhn3uDdsjPysNcHp-160">
          <mxGeometry width="60" height="30" as="geometry">
            <mxRectangle width="60" height="30" as="alternateBounds" />
          </mxGeometry>
        </mxCell>
        <mxCell id="YktuZhn3uDdsjPysNcHp-162" value="ID" style="shape=partialRectangle;connectable=0;fillColor=#ffe6cc;top=0;left=0;bottom=0;right=0;align=left;spacingLeft=6;fontStyle=5;overflow=hidden;html=1;whiteSpace=wrap;strokeColor=#d79b00;" vertex="1" parent="YktuZhn3uDdsjPysNcHp-160">
          <mxGeometry x="60" width="120" height="30" as="geometry">
            <mxRectangle width="120" height="30" as="alternateBounds" />
          </mxGeometry>
        </mxCell>
        <mxCell id="YktuZhn3uDdsjPysNcHp-163" value="" style="shape=tableRow;horizontal=0;startSize=0;swimlaneHead=0;swimlaneBody=0;fillColor=none;collapsible=0;dropTarget=0;points=[[0,0.5],[1,0.5]];portConstraint=eastwest;top=0;left=0;right=0;bottom=1;html=1;" vertex="1" parent="YktuZhn3uDdsjPysNcHp-159">
          <mxGeometry y="60" width="180" height="30" as="geometry" />
        </mxCell>
        <mxCell id="YktuZhn3uDdsjPysNcHp-164" value="FK" style="shape=partialRectangle;connectable=0;fillColor=#dae8fc;top=0;left=0;bottom=0;right=0;fontStyle=1;overflow=hidden;html=1;whiteSpace=wrap;strokeColor=#6c8ebf;" vertex="1" parent="YktuZhn3uDdsjPysNcHp-163">
          <mxGeometry width="60" height="30" as="geometry">
            <mxRectangle width="60" height="30" as="alternateBounds" />
          </mxGeometry>
        </mxCell>
        <mxCell id="YktuZhn3uDdsjPysNcHp-165" value="PersonalDetailsID" style="shape=partialRectangle;connectable=0;fillColor=#dae8fc;top=0;left=0;bottom=0;right=0;align=left;spacingLeft=6;fontStyle=5;overflow=hidden;html=1;whiteSpace=wrap;strokeColor=#6c8ebf;" vertex="1" parent="YktuZhn3uDdsjPysNcHp-163">
          <mxGeometry x="60" width="120" height="30" as="geometry">
            <mxRectangle width="120" height="30" as="alternateBounds" />
          </mxGeometry>
        </mxCell>
        <mxCell id="YktuZhn3uDdsjPysNcHp-166" value="" style="shape=tableRow;horizontal=0;startSize=0;swimlaneHead=0;swimlaneBody=0;fillColor=none;collapsible=0;dropTarget=0;points=[[0,0.5],[1,0.5]];portConstraint=eastwest;top=0;left=0;right=0;bottom=0;html=1;" vertex="1" parent="YktuZhn3uDdsjPysNcHp-159">
          <mxGeometry y="90" width="180" height="30" as="geometry" />
        </mxCell>
        <mxCell id="YktuZhn3uDdsjPysNcHp-167" value="" style="shape=partialRectangle;connectable=0;fillColor=none;top=0;left=0;bottom=0;right=0;editable=1;overflow=hidden;html=1;whiteSpace=wrap;" vertex="1" parent="YktuZhn3uDdsjPysNcHp-166">
          <mxGeometry width="60" height="30" as="geometry">
            <mxRectangle width="60" height="30" as="alternateBounds" />
          </mxGeometry>
        </mxCell>
        <mxCell id="YktuZhn3uDdsjPysNcHp-168" value="IsGraduate" style="shape=partialRectangle;connectable=0;fillColor=none;top=0;left=0;bottom=0;right=0;align=left;spacingLeft=6;overflow=hidden;html=1;whiteSpace=wrap;" vertex="1" parent="YktuZhn3uDdsjPysNcHp-166">
          <mxGeometry x="60" width="120" height="30" as="geometry">
            <mxRectangle width="120" height="30" as="alternateBounds" />
          </mxGeometry>
        </mxCell>
        <mxCell id="YktuZhn3uDdsjPysNcHp-169" value="" style="shape=tableRow;horizontal=0;startSize=0;swimlaneHead=0;swimlaneBody=0;fillColor=none;collapsible=0;dropTarget=0;points=[[0,0.5],[1,0.5]];portConstraint=eastwest;top=0;left=0;right=0;bottom=0;html=1;" vertex="1" parent="YktuZhn3uDdsjPysNcHp-159">
          <mxGeometry y="120" width="180" height="30" as="geometry" />
        </mxCell>
        <mxCell id="YktuZhn3uDdsjPysNcHp-170" value="" style="shape=partialRectangle;connectable=0;fillColor=none;top=0;left=0;bottom=0;right=0;editable=1;overflow=hidden;html=1;whiteSpace=wrap;" vertex="1" parent="YktuZhn3uDdsjPysNcHp-169">
          <mxGeometry width="60" height="30" as="geometry">
            <mxRectangle width="60" height="30" as="alternateBounds" />
          </mxGeometry>
        </mxCell>
        <mxCell id="YktuZhn3uDdsjPysNcHp-171" value="Start Date" style="shape=partialRectangle;connectable=0;fillColor=none;top=0;left=0;bottom=0;right=0;align=left;spacingLeft=6;overflow=hidden;html=1;whiteSpace=wrap;" vertex="1" parent="YktuZhn3uDdsjPysNcHp-169">
          <mxGeometry x="60" width="120" height="30" as="geometry">
            <mxRectangle width="120" height="30" as="alternateBounds" />
          </mxGeometry>
        </mxCell>
        <mxCell id="YktuZhn3uDdsjPysNcHp-172" value="" style="shape=tableRow;horizontal=0;startSize=0;swimlaneHead=0;swimlaneBody=0;fillColor=none;collapsible=0;dropTarget=0;points=[[0,0.5],[1,0.5]];portConstraint=eastwest;top=0;left=0;right=0;bottom=0;html=1;" vertex="1" parent="YktuZhn3uDdsjPysNcHp-159">
          <mxGeometry y="150" width="180" height="30" as="geometry" />
        </mxCell>
        <mxCell id="YktuZhn3uDdsjPysNcHp-173" value="" style="shape=partialRectangle;connectable=0;fillColor=none;top=0;left=0;bottom=0;right=0;editable=1;overflow=hidden;html=1;whiteSpace=wrap;" vertex="1" parent="YktuZhn3uDdsjPysNcHp-172">
          <mxGeometry width="60" height="30" as="geometry">
            <mxRectangle width="60" height="30" as="alternateBounds" />
          </mxGeometry>
        </mxCell>
        <mxCell id="YktuZhn3uDdsjPysNcHp-174" value="Graduate Date" style="shape=partialRectangle;connectable=0;fillColor=none;top=0;left=0;bottom=0;right=0;align=left;spacingLeft=6;overflow=hidden;html=1;whiteSpace=wrap;" vertex="1" parent="YktuZhn3uDdsjPysNcHp-172">
          <mxGeometry x="60" width="120" height="30" as="geometry">
            <mxRectangle width="120" height="30" as="alternateBounds" />
          </mxGeometry>
        </mxCell>
        <mxCell id="YktuZhn3uDdsjPysNcHp-175" value="" style="shape=tableRow;horizontal=0;startSize=0;swimlaneHead=0;swimlaneBody=0;fillColor=none;collapsible=0;dropTarget=0;points=[[0,0.5],[1,0.5]];portConstraint=eastwest;top=0;left=0;right=0;bottom=0;html=1;" vertex="1" parent="YktuZhn3uDdsjPysNcHp-159">
          <mxGeometry y="180" width="180" height="30" as="geometry" />
        </mxCell>
        <mxCell id="YktuZhn3uDdsjPysNcHp-176" value="" style="shape=partialRectangle;connectable=0;fillColor=none;top=0;left=0;bottom=0;right=0;editable=1;overflow=hidden;html=1;whiteSpace=wrap;" vertex="1" parent="YktuZhn3uDdsjPysNcHp-175">
          <mxGeometry width="60" height="30" as="geometry">
            <mxRectangle width="60" height="30" as="alternateBounds" />
          </mxGeometry>
        </mxCell>
        <mxCell id="YktuZhn3uDdsjPysNcHp-177" value="Expected Graduate Date" style="shape=partialRectangle;connectable=0;fillColor=none;top=0;left=0;bottom=0;right=0;align=left;spacingLeft=6;overflow=hidden;html=1;whiteSpace=wrap;" vertex="1" parent="YktuZhn3uDdsjPysNcHp-175">
          <mxGeometry x="60" width="120" height="30" as="geometry">
            <mxRectangle width="120" height="30" as="alternateBounds" />
          </mxGeometry>
        </mxCell>
        <mxCell id="YktuZhn3uDdsjPysNcHp-181" value="School" style="shape=table;startSize=30;container=1;collapsible=1;childLayout=tableLayout;fixedRows=1;rowLines=0;fontStyle=1;align=center;resizeLast=1;html=1;whiteSpace=wrap;fillColor=#d5e8d4;strokeColor=#82b366;" vertex="1" parent="1">
          <mxGeometry x="1170" y="30" width="180" height="210" as="geometry" />
        </mxCell>
        <mxCell id="YktuZhn3uDdsjPysNcHp-182" value="" style="shape=tableRow;horizontal=0;startSize=0;swimlaneHead=0;swimlaneBody=0;fillColor=none;collapsible=0;dropTarget=0;points=[[0,0.5],[1,0.5]];portConstraint=eastwest;top=0;left=0;right=0;bottom=0;html=1;" vertex="1" parent="YktuZhn3uDdsjPysNcHp-181">
          <mxGeometry y="30" width="180" height="30" as="geometry" />
        </mxCell>
        <mxCell id="YktuZhn3uDdsjPysNcHp-183" value="PK" style="shape=partialRectangle;connectable=0;fillColor=#ffe6cc;top=0;left=0;bottom=0;right=0;fontStyle=1;overflow=hidden;html=1;whiteSpace=wrap;strokeColor=#d79b00;" vertex="1" parent="YktuZhn3uDdsjPysNcHp-182">
          <mxGeometry width="60" height="30" as="geometry">
            <mxRectangle width="60" height="30" as="alternateBounds" />
          </mxGeometry>
        </mxCell>
        <mxCell id="YktuZhn3uDdsjPysNcHp-184" value="ID" style="shape=partialRectangle;connectable=0;fillColor=#ffe6cc;top=0;left=0;bottom=0;right=0;align=left;spacingLeft=6;fontStyle=5;overflow=hidden;html=1;whiteSpace=wrap;strokeColor=#d79b00;" vertex="1" parent="YktuZhn3uDdsjPysNcHp-182">
          <mxGeometry x="60" width="120" height="30" as="geometry">
            <mxRectangle width="120" height="30" as="alternateBounds" />
          </mxGeometry>
        </mxCell>
        <mxCell id="YktuZhn3uDdsjPysNcHp-185" value="" style="shape=tableRow;horizontal=0;startSize=0;swimlaneHead=0;swimlaneBody=0;fillColor=none;collapsible=0;dropTarget=0;points=[[0,0.5],[1,0.5]];portConstraint=eastwest;top=0;left=0;right=0;bottom=1;html=1;" vertex="1" parent="YktuZhn3uDdsjPysNcHp-181">
          <mxGeometry y="60" width="180" height="30" as="geometry" />
        </mxCell>
        <mxCell id="YktuZhn3uDdsjPysNcHp-186" value="FK" style="shape=partialRectangle;connectable=0;fillColor=#dae8fc;top=0;left=0;bottom=0;right=0;fontStyle=1;overflow=hidden;html=1;whiteSpace=wrap;strokeColor=#6c8ebf;" vertex="1" parent="YktuZhn3uDdsjPysNcHp-185">
          <mxGeometry width="60" height="30" as="geometry">
            <mxRectangle width="60" height="30" as="alternateBounds" />
          </mxGeometry>
        </mxCell>
        <mxCell id="YktuZhn3uDdsjPysNcHp-187" value="PersonalDetailsID" style="shape=partialRectangle;connectable=0;fillColor=#dae8fc;top=0;left=0;bottom=0;right=0;align=left;spacingLeft=6;fontStyle=5;overflow=hidden;html=1;whiteSpace=wrap;strokeColor=#6c8ebf;" vertex="1" parent="YktuZhn3uDdsjPysNcHp-185">
          <mxGeometry x="60" width="120" height="30" as="geometry">
            <mxRectangle width="120" height="30" as="alternateBounds" />
          </mxGeometry>
        </mxCell>
        <mxCell id="YktuZhn3uDdsjPysNcHp-188" value="" style="shape=tableRow;horizontal=0;startSize=0;swimlaneHead=0;swimlaneBody=0;fillColor=none;collapsible=0;dropTarget=0;points=[[0,0.5],[1,0.5]];portConstraint=eastwest;top=0;left=0;right=0;bottom=0;html=1;" vertex="1" parent="YktuZhn3uDdsjPysNcHp-181">
          <mxGeometry y="90" width="180" height="30" as="geometry" />
        </mxCell>
        <mxCell id="YktuZhn3uDdsjPysNcHp-189" value="" style="shape=partialRectangle;connectable=0;fillColor=none;top=0;left=0;bottom=0;right=0;editable=1;overflow=hidden;html=1;whiteSpace=wrap;" vertex="1" parent="YktuZhn3uDdsjPysNcHp-188">
          <mxGeometry width="60" height="30" as="geometry">
            <mxRectangle width="60" height="30" as="alternateBounds" />
          </mxGeometry>
        </mxCell>
        <mxCell id="YktuZhn3uDdsjPysNcHp-190" value="IsGraduate" style="shape=partialRectangle;connectable=0;fillColor=none;top=0;left=0;bottom=0;right=0;align=left;spacingLeft=6;overflow=hidden;html=1;whiteSpace=wrap;" vertex="1" parent="YktuZhn3uDdsjPysNcHp-188">
          <mxGeometry x="60" width="120" height="30" as="geometry">
            <mxRectangle width="120" height="30" as="alternateBounds" />
          </mxGeometry>
        </mxCell>
        <mxCell id="YktuZhn3uDdsjPysNcHp-191" value="" style="shape=tableRow;horizontal=0;startSize=0;swimlaneHead=0;swimlaneBody=0;fillColor=none;collapsible=0;dropTarget=0;points=[[0,0.5],[1,0.5]];portConstraint=eastwest;top=0;left=0;right=0;bottom=0;html=1;" vertex="1" parent="YktuZhn3uDdsjPysNcHp-181">
          <mxGeometry y="120" width="180" height="30" as="geometry" />
        </mxCell>
        <mxCell id="YktuZhn3uDdsjPysNcHp-192" value="" style="shape=partialRectangle;connectable=0;fillColor=none;top=0;left=0;bottom=0;right=0;editable=1;overflow=hidden;html=1;whiteSpace=wrap;" vertex="1" parent="YktuZhn3uDdsjPysNcHp-191">
          <mxGeometry width="60" height="30" as="geometry">
            <mxRectangle width="60" height="30" as="alternateBounds" />
          </mxGeometry>
        </mxCell>
        <mxCell id="YktuZhn3uDdsjPysNcHp-193" value="Start Date" style="shape=partialRectangle;connectable=0;fillColor=none;top=0;left=0;bottom=0;right=0;align=left;spacingLeft=6;overflow=hidden;html=1;whiteSpace=wrap;" vertex="1" parent="YktuZhn3uDdsjPysNcHp-191">
          <mxGeometry x="60" width="120" height="30" as="geometry">
            <mxRectangle width="120" height="30" as="alternateBounds" />
          </mxGeometry>
        </mxCell>
        <mxCell id="YktuZhn3uDdsjPysNcHp-194" value="" style="shape=tableRow;horizontal=0;startSize=0;swimlaneHead=0;swimlaneBody=0;fillColor=none;collapsible=0;dropTarget=0;points=[[0,0.5],[1,0.5]];portConstraint=eastwest;top=0;left=0;right=0;bottom=0;html=1;" vertex="1" parent="YktuZhn3uDdsjPysNcHp-181">
          <mxGeometry y="150" width="180" height="30" as="geometry" />
        </mxCell>
        <mxCell id="YktuZhn3uDdsjPysNcHp-195" value="" style="shape=partialRectangle;connectable=0;fillColor=none;top=0;left=0;bottom=0;right=0;editable=1;overflow=hidden;html=1;whiteSpace=wrap;" vertex="1" parent="YktuZhn3uDdsjPysNcHp-194">
          <mxGeometry width="60" height="30" as="geometry">
            <mxRectangle width="60" height="30" as="alternateBounds" />
          </mxGeometry>
        </mxCell>
        <mxCell id="YktuZhn3uDdsjPysNcHp-196" value="Graduate Date" style="shape=partialRectangle;connectable=0;fillColor=none;top=0;left=0;bottom=0;right=0;align=left;spacingLeft=6;overflow=hidden;html=1;whiteSpace=wrap;" vertex="1" parent="YktuZhn3uDdsjPysNcHp-194">
          <mxGeometry x="60" width="120" height="30" as="geometry">
            <mxRectangle width="120" height="30" as="alternateBounds" />
          </mxGeometry>
        </mxCell>
        <mxCell id="YktuZhn3uDdsjPysNcHp-197" value="" style="shape=tableRow;horizontal=0;startSize=0;swimlaneHead=0;swimlaneBody=0;fillColor=none;collapsible=0;dropTarget=0;points=[[0,0.5],[1,0.5]];portConstraint=eastwest;top=0;left=0;right=0;bottom=0;html=1;" vertex="1" parent="YktuZhn3uDdsjPysNcHp-181">
          <mxGeometry y="180" width="180" height="30" as="geometry" />
        </mxCell>
        <mxCell id="YktuZhn3uDdsjPysNcHp-198" value="" style="shape=partialRectangle;connectable=0;fillColor=none;top=0;left=0;bottom=0;right=0;editable=1;overflow=hidden;html=1;whiteSpace=wrap;" vertex="1" parent="YktuZhn3uDdsjPysNcHp-197">
          <mxGeometry width="60" height="30" as="geometry">
            <mxRectangle width="60" height="30" as="alternateBounds" />
          </mxGeometry>
        </mxCell>
        <mxCell id="YktuZhn3uDdsjPysNcHp-199" value="Expected Graduate Date" style="shape=partialRectangle;connectable=0;fillColor=none;top=0;left=0;bottom=0;right=0;align=left;spacingLeft=6;overflow=hidden;html=1;whiteSpace=wrap;" vertex="1" parent="YktuZhn3uDdsjPysNcHp-197">
          <mxGeometry x="60" width="120" height="30" as="geometry">
            <mxRectangle width="120" height="30" as="alternateBounds" />
          </mxGeometry>
        </mxCell>
        <mxCell id="YktuZhn3uDdsjPysNcHp-200" value="University" style="shape=table;startSize=30;container=1;collapsible=1;childLayout=tableLayout;fixedRows=1;rowLines=0;fontStyle=1;align=center;resizeLast=1;html=1;whiteSpace=wrap;fillColor=#d5e8d4;strokeColor=#82b366;" vertex="1" parent="1">
          <mxGeometry x="1170" y="560" width="180" height="210" as="geometry" />
        </mxCell>
        <mxCell id="YktuZhn3uDdsjPysNcHp-201" value="" style="shape=tableRow;horizontal=0;startSize=0;swimlaneHead=0;swimlaneBody=0;fillColor=none;collapsible=0;dropTarget=0;points=[[0,0.5],[1,0.5]];portConstraint=eastwest;top=0;left=0;right=0;bottom=0;html=1;" vertex="1" parent="YktuZhn3uDdsjPysNcHp-200">
          <mxGeometry y="30" width="180" height="30" as="geometry" />
        </mxCell>
        <mxCell id="YktuZhn3uDdsjPysNcHp-202" value="PK" style="shape=partialRectangle;connectable=0;fillColor=#ffe6cc;top=0;left=0;bottom=0;right=0;fontStyle=1;overflow=hidden;html=1;whiteSpace=wrap;strokeColor=#d79b00;" vertex="1" parent="YktuZhn3uDdsjPysNcHp-201">
          <mxGeometry width="60" height="30" as="geometry">
            <mxRectangle width="60" height="30" as="alternateBounds" />
          </mxGeometry>
        </mxCell>
        <mxCell id="YktuZhn3uDdsjPysNcHp-203" value="ID" style="shape=partialRectangle;connectable=0;fillColor=#ffe6cc;top=0;left=0;bottom=0;right=0;align=left;spacingLeft=6;fontStyle=5;overflow=hidden;html=1;whiteSpace=wrap;strokeColor=#d79b00;" vertex="1" parent="YktuZhn3uDdsjPysNcHp-201">
          <mxGeometry x="60" width="120" height="30" as="geometry">
            <mxRectangle width="120" height="30" as="alternateBounds" />
          </mxGeometry>
        </mxCell>
        <mxCell id="YktuZhn3uDdsjPysNcHp-204" value="" style="shape=tableRow;horizontal=0;startSize=0;swimlaneHead=0;swimlaneBody=0;fillColor=none;collapsible=0;dropTarget=0;points=[[0,0.5],[1,0.5]];portConstraint=eastwest;top=0;left=0;right=0;bottom=1;html=1;" vertex="1" parent="YktuZhn3uDdsjPysNcHp-200">
          <mxGeometry y="60" width="180" height="30" as="geometry" />
        </mxCell>
        <mxCell id="YktuZhn3uDdsjPysNcHp-205" value="FK" style="shape=partialRectangle;connectable=0;fillColor=#dae8fc;top=0;left=0;bottom=0;right=0;fontStyle=1;overflow=hidden;html=1;whiteSpace=wrap;strokeColor=#6c8ebf;" vertex="1" parent="YktuZhn3uDdsjPysNcHp-204">
          <mxGeometry width="60" height="30" as="geometry">
            <mxRectangle width="60" height="30" as="alternateBounds" />
          </mxGeometry>
        </mxCell>
        <mxCell id="YktuZhn3uDdsjPysNcHp-206" value="PersonalDetailsID" style="shape=partialRectangle;connectable=0;fillColor=#dae8fc;top=0;left=0;bottom=0;right=0;align=left;spacingLeft=6;fontStyle=5;overflow=hidden;html=1;whiteSpace=wrap;strokeColor=#6c8ebf;" vertex="1" parent="YktuZhn3uDdsjPysNcHp-204">
          <mxGeometry x="60" width="120" height="30" as="geometry">
            <mxRectangle width="120" height="30" as="alternateBounds" />
          </mxGeometry>
        </mxCell>
        <mxCell id="YktuZhn3uDdsjPysNcHp-207" value="" style="shape=tableRow;horizontal=0;startSize=0;swimlaneHead=0;swimlaneBody=0;fillColor=none;collapsible=0;dropTarget=0;points=[[0,0.5],[1,0.5]];portConstraint=eastwest;top=0;left=0;right=0;bottom=0;html=1;" vertex="1" parent="YktuZhn3uDdsjPysNcHp-200">
          <mxGeometry y="90" width="180" height="30" as="geometry" />
        </mxCell>
        <mxCell id="YktuZhn3uDdsjPysNcHp-208" value="" style="shape=partialRectangle;connectable=0;fillColor=none;top=0;left=0;bottom=0;right=0;editable=1;overflow=hidden;html=1;whiteSpace=wrap;" vertex="1" parent="YktuZhn3uDdsjPysNcHp-207">
          <mxGeometry width="60" height="30" as="geometry">
            <mxRectangle width="60" height="30" as="alternateBounds" />
          </mxGeometry>
        </mxCell>
        <mxCell id="YktuZhn3uDdsjPysNcHp-209" value="IsGraduate" style="shape=partialRectangle;connectable=0;fillColor=none;top=0;left=0;bottom=0;right=0;align=left;spacingLeft=6;overflow=hidden;html=1;whiteSpace=wrap;" vertex="1" parent="YktuZhn3uDdsjPysNcHp-207">
          <mxGeometry x="60" width="120" height="30" as="geometry">
            <mxRectangle width="120" height="30" as="alternateBounds" />
          </mxGeometry>
        </mxCell>
        <mxCell id="YktuZhn3uDdsjPysNcHp-210" value="" style="shape=tableRow;horizontal=0;startSize=0;swimlaneHead=0;swimlaneBody=0;fillColor=none;collapsible=0;dropTarget=0;points=[[0,0.5],[1,0.5]];portConstraint=eastwest;top=0;left=0;right=0;bottom=0;html=1;" vertex="1" parent="YktuZhn3uDdsjPysNcHp-200">
          <mxGeometry y="120" width="180" height="30" as="geometry" />
        </mxCell>
        <mxCell id="YktuZhn3uDdsjPysNcHp-211" value="" style="shape=partialRectangle;connectable=0;fillColor=none;top=0;left=0;bottom=0;right=0;editable=1;overflow=hidden;html=1;whiteSpace=wrap;" vertex="1" parent="YktuZhn3uDdsjPysNcHp-210">
          <mxGeometry width="60" height="30" as="geometry">
            <mxRectangle width="60" height="30" as="alternateBounds" />
          </mxGeometry>
        </mxCell>
        <mxCell id="YktuZhn3uDdsjPysNcHp-212" value="Start Date" style="shape=partialRectangle;connectable=0;fillColor=none;top=0;left=0;bottom=0;right=0;align=left;spacingLeft=6;overflow=hidden;html=1;whiteSpace=wrap;" vertex="1" parent="YktuZhn3uDdsjPysNcHp-210">
          <mxGeometry x="60" width="120" height="30" as="geometry">
            <mxRectangle width="120" height="30" as="alternateBounds" />
          </mxGeometry>
        </mxCell>
        <mxCell id="YktuZhn3uDdsjPysNcHp-213" value="" style="shape=tableRow;horizontal=0;startSize=0;swimlaneHead=0;swimlaneBody=0;fillColor=none;collapsible=0;dropTarget=0;points=[[0,0.5],[1,0.5]];portConstraint=eastwest;top=0;left=0;right=0;bottom=0;html=1;" vertex="1" parent="YktuZhn3uDdsjPysNcHp-200">
          <mxGeometry y="150" width="180" height="30" as="geometry" />
        </mxCell>
        <mxCell id="YktuZhn3uDdsjPysNcHp-214" value="" style="shape=partialRectangle;connectable=0;fillColor=none;top=0;left=0;bottom=0;right=0;editable=1;overflow=hidden;html=1;whiteSpace=wrap;" vertex="1" parent="YktuZhn3uDdsjPysNcHp-213">
          <mxGeometry width="60" height="30" as="geometry">
            <mxRectangle width="60" height="30" as="alternateBounds" />
          </mxGeometry>
        </mxCell>
        <mxCell id="YktuZhn3uDdsjPysNcHp-215" value="Graduate Date" style="shape=partialRectangle;connectable=0;fillColor=none;top=0;left=0;bottom=0;right=0;align=left;spacingLeft=6;overflow=hidden;html=1;whiteSpace=wrap;" vertex="1" parent="YktuZhn3uDdsjPysNcHp-213">
          <mxGeometry x="60" width="120" height="30" as="geometry">
            <mxRectangle width="120" height="30" as="alternateBounds" />
          </mxGeometry>
        </mxCell>
        <mxCell id="YktuZhn3uDdsjPysNcHp-216" value="" style="shape=tableRow;horizontal=0;startSize=0;swimlaneHead=0;swimlaneBody=0;fillColor=none;collapsible=0;dropTarget=0;points=[[0,0.5],[1,0.5]];portConstraint=eastwest;top=0;left=0;right=0;bottom=0;html=1;" vertex="1" parent="YktuZhn3uDdsjPysNcHp-200">
          <mxGeometry y="180" width="180" height="30" as="geometry" />
        </mxCell>
        <mxCell id="YktuZhn3uDdsjPysNcHp-217" value="" style="shape=partialRectangle;connectable=0;fillColor=none;top=0;left=0;bottom=0;right=0;editable=1;overflow=hidden;html=1;whiteSpace=wrap;" vertex="1" parent="YktuZhn3uDdsjPysNcHp-216">
          <mxGeometry width="60" height="30" as="geometry">
            <mxRectangle width="60" height="30" as="alternateBounds" />
          </mxGeometry>
        </mxCell>
        <mxCell id="YktuZhn3uDdsjPysNcHp-218" value="Expected Graduate Date" style="shape=partialRectangle;connectable=0;fillColor=none;top=0;left=0;bottom=0;right=0;align=left;spacingLeft=6;overflow=hidden;html=1;whiteSpace=wrap;" vertex="1" parent="YktuZhn3uDdsjPysNcHp-216">
          <mxGeometry x="60" width="120" height="30" as="geometry">
            <mxRectangle width="120" height="30" as="alternateBounds" />
          </mxGeometry>
        </mxCell>
        <mxCell id="YktuZhn3uDdsjPysNcHp-219" value="Experience" style="shape=table;startSize=30;container=1;collapsible=1;childLayout=tableLayout;fixedRows=1;rowLines=0;fontStyle=1;align=center;resizeLast=1;html=1;whiteSpace=wrap;fillColor=#d5e8d4;strokeColor=#82b366;" vertex="1" parent="1">
          <mxGeometry x="260" y="410" width="180" height="150" as="geometry" />
        </mxCell>
        <mxCell id="YktuZhn3uDdsjPysNcHp-220" value="" style="shape=tableRow;horizontal=0;startSize=0;swimlaneHead=0;swimlaneBody=0;fillColor=none;collapsible=0;dropTarget=0;points=[[0,0.5],[1,0.5]];portConstraint=eastwest;top=0;left=0;right=0;bottom=0;html=1;" vertex="1" parent="YktuZhn3uDdsjPysNcHp-219">
          <mxGeometry y="30" width="180" height="30" as="geometry" />
        </mxCell>
        <mxCell id="YktuZhn3uDdsjPysNcHp-221" value="PK" style="shape=partialRectangle;connectable=0;fillColor=#ffe6cc;top=0;left=0;bottom=0;right=0;fontStyle=1;overflow=hidden;html=1;whiteSpace=wrap;strokeColor=#d79b00;" vertex="1" parent="YktuZhn3uDdsjPysNcHp-220">
          <mxGeometry width="60" height="30" as="geometry">
            <mxRectangle width="60" height="30" as="alternateBounds" />
          </mxGeometry>
        </mxCell>
        <mxCell id="YktuZhn3uDdsjPysNcHp-222" value="ID" style="shape=partialRectangle;connectable=0;fillColor=#ffe6cc;top=0;left=0;bottom=0;right=0;align=left;spacingLeft=6;fontStyle=5;overflow=hidden;html=1;whiteSpace=wrap;strokeColor=#d79b00;" vertex="1" parent="YktuZhn3uDdsjPysNcHp-220">
          <mxGeometry x="60" width="120" height="30" as="geometry">
            <mxRectangle width="120" height="30" as="alternateBounds" />
          </mxGeometry>
        </mxCell>
        <mxCell id="YktuZhn3uDdsjPysNcHp-223" value="" style="shape=tableRow;horizontal=0;startSize=0;swimlaneHead=0;swimlaneBody=0;fillColor=none;collapsible=0;dropTarget=0;points=[[0,0.5],[1,0.5]];portConstraint=eastwest;top=0;left=0;right=0;bottom=1;html=1;" vertex="1" parent="YktuZhn3uDdsjPysNcHp-219">
          <mxGeometry y="60" width="180" height="30" as="geometry" />
        </mxCell>
        <mxCell id="YktuZhn3uDdsjPysNcHp-224" value="FK" style="shape=partialRectangle;connectable=0;fillColor=#dae8fc;top=0;left=0;bottom=0;right=0;fontStyle=1;overflow=hidden;html=1;whiteSpace=wrap;strokeColor=#6c8ebf;" vertex="1" parent="YktuZhn3uDdsjPysNcHp-223">
          <mxGeometry width="60" height="30" as="geometry">
            <mxRectangle width="60" height="30" as="alternateBounds" />
          </mxGeometry>
        </mxCell>
        <mxCell id="YktuZhn3uDdsjPysNcHp-225" value="PersonId" style="shape=partialRectangle;connectable=0;fillColor=#dae8fc;top=0;left=0;bottom=0;right=0;align=left;spacingLeft=6;fontStyle=5;overflow=hidden;html=1;whiteSpace=wrap;strokeColor=#6c8ebf;" vertex="1" parent="YktuZhn3uDdsjPysNcHp-223">
          <mxGeometry x="60" width="120" height="30" as="geometry">
            <mxRectangle width="120" height="30" as="alternateBounds" />
          </mxGeometry>
        </mxCell>
        <mxCell id="YktuZhn3uDdsjPysNcHp-226" value="" style="shape=tableRow;horizontal=0;startSize=0;swimlaneHead=0;swimlaneBody=0;fillColor=none;collapsible=0;dropTarget=0;points=[[0,0.5],[1,0.5]];portConstraint=eastwest;top=0;left=0;right=0;bottom=0;html=1;" vertex="1" parent="YktuZhn3uDdsjPysNcHp-219">
          <mxGeometry y="90" width="180" height="30" as="geometry" />
        </mxCell>
        <mxCell id="YktuZhn3uDdsjPysNcHp-227" value="" style="shape=partialRectangle;connectable=0;fillColor=none;top=0;left=0;bottom=0;right=0;editable=1;overflow=hidden;html=1;whiteSpace=wrap;" vertex="1" parent="YktuZhn3uDdsjPysNcHp-226">
          <mxGeometry width="60" height="30" as="geometry">
            <mxRectangle width="60" height="30" as="alternateBounds" />
          </mxGeometry>
        </mxCell>
        <mxCell id="YktuZhn3uDdsjPysNcHp-228" value="Experience Description" style="shape=partialRectangle;connectable=0;fillColor=none;top=0;left=0;bottom=0;right=0;align=left;spacingLeft=6;overflow=hidden;html=1;whiteSpace=wrap;" vertex="1" parent="YktuZhn3uDdsjPysNcHp-226">
          <mxGeometry x="60" width="120" height="30" as="geometry">
            <mxRectangle width="120" height="30" as="alternateBounds" />
          </mxGeometry>
        </mxCell>
        <mxCell id="YktuZhn3uDdsjPysNcHp-229" value="" style="shape=tableRow;horizontal=0;startSize=0;swimlaneHead=0;swimlaneBody=0;fillColor=none;collapsible=0;dropTarget=0;points=[[0,0.5],[1,0.5]];portConstraint=eastwest;top=0;left=0;right=0;bottom=0;html=1;" vertex="1" parent="YktuZhn3uDdsjPysNcHp-219">
          <mxGeometry y="120" width="180" height="30" as="geometry" />
        </mxCell>
        <mxCell id="YktuZhn3uDdsjPysNcHp-230" value="" style="shape=partialRectangle;connectable=0;fillColor=none;top=0;left=0;bottom=0;right=0;editable=1;overflow=hidden;html=1;whiteSpace=wrap;" vertex="1" parent="YktuZhn3uDdsjPysNcHp-229">
          <mxGeometry width="60" height="30" as="geometry">
            <mxRectangle width="60" height="30" as="alternateBounds" />
          </mxGeometry>
        </mxCell>
        <mxCell id="YktuZhn3uDdsjPysNcHp-231" value="Certificate" style="shape=partialRectangle;connectable=0;fillColor=none;top=0;left=0;bottom=0;right=0;align=left;spacingLeft=6;overflow=hidden;html=1;whiteSpace=wrap;" vertex="1" parent="YktuZhn3uDdsjPysNcHp-229">
          <mxGeometry x="60" width="120" height="30" as="geometry">
            <mxRectangle width="120" height="30" as="alternateBounds" />
          </mxGeometry>
        </mxCell>
        <mxCell id="YktuZhn3uDdsjPysNcHp-238" value="Certificate" style="shape=table;startSize=30;container=1;collapsible=1;childLayout=tableLayout;fixedRows=1;rowLines=0;fontStyle=1;align=center;resizeLast=1;html=1;whiteSpace=wrap;fillColor=#d5e8d4;strokeColor=#82b366;" vertex="1" parent="1">
          <mxGeometry y="425" width="180" height="120" as="geometry" />
        </mxCell>
        <mxCell id="YktuZhn3uDdsjPysNcHp-239" value="" style="shape=tableRow;horizontal=0;startSize=0;swimlaneHead=0;swimlaneBody=0;fillColor=none;collapsible=0;dropTarget=0;points=[[0,0.5],[1,0.5]];portConstraint=eastwest;top=0;left=0;right=0;bottom=0;html=1;" vertex="1" parent="YktuZhn3uDdsjPysNcHp-238">
          <mxGeometry y="30" width="180" height="30" as="geometry" />
        </mxCell>
        <mxCell id="YktuZhn3uDdsjPysNcHp-240" value="PK" style="shape=partialRectangle;connectable=0;fillColor=#ffe6cc;top=0;left=0;bottom=0;right=0;fontStyle=1;overflow=hidden;html=1;whiteSpace=wrap;strokeColor=#d79b00;" vertex="1" parent="YktuZhn3uDdsjPysNcHp-239">
          <mxGeometry width="60" height="30" as="geometry">
            <mxRectangle width="60" height="30" as="alternateBounds" />
          </mxGeometry>
        </mxCell>
        <mxCell id="YktuZhn3uDdsjPysNcHp-241" value="ID" style="shape=partialRectangle;connectable=0;fillColor=#ffe6cc;top=0;left=0;bottom=0;right=0;align=left;spacingLeft=6;fontStyle=5;overflow=hidden;html=1;whiteSpace=wrap;strokeColor=#d79b00;" vertex="1" parent="YktuZhn3uDdsjPysNcHp-239">
          <mxGeometry x="60" width="120" height="30" as="geometry">
            <mxRectangle width="120" height="30" as="alternateBounds" />
          </mxGeometry>
        </mxCell>
        <mxCell id="YktuZhn3uDdsjPysNcHp-242" value="" style="shape=tableRow;horizontal=0;startSize=0;swimlaneHead=0;swimlaneBody=0;fillColor=none;collapsible=0;dropTarget=0;points=[[0,0.5],[1,0.5]];portConstraint=eastwest;top=0;left=0;right=0;bottom=1;html=1;" vertex="1" parent="YktuZhn3uDdsjPysNcHp-238">
          <mxGeometry y="60" width="180" height="30" as="geometry" />
        </mxCell>
        <mxCell id="YktuZhn3uDdsjPysNcHp-243" value="FK" style="shape=partialRectangle;connectable=0;fillColor=#dae8fc;top=0;left=0;bottom=0;right=0;fontStyle=1;overflow=hidden;html=1;whiteSpace=wrap;strokeColor=#6c8ebf;" vertex="1" parent="YktuZhn3uDdsjPysNcHp-242">
          <mxGeometry width="60" height="30" as="geometry">
            <mxRectangle width="60" height="30" as="alternateBounds" />
          </mxGeometry>
        </mxCell>
        <mxCell id="YktuZhn3uDdsjPysNcHp-244" value="ExperienceId" style="shape=partialRectangle;connectable=0;fillColor=#dae8fc;top=0;left=0;bottom=0;right=0;align=left;spacingLeft=6;fontStyle=5;overflow=hidden;html=1;whiteSpace=wrap;strokeColor=#6c8ebf;" vertex="1" parent="YktuZhn3uDdsjPysNcHp-242">
          <mxGeometry x="60" width="120" height="30" as="geometry">
            <mxRectangle width="120" height="30" as="alternateBounds" />
          </mxGeometry>
        </mxCell>
        <mxCell id="YktuZhn3uDdsjPysNcHp-245" value="" style="shape=tableRow;horizontal=0;startSize=0;swimlaneHead=0;swimlaneBody=0;fillColor=none;collapsible=0;dropTarget=0;points=[[0,0.5],[1,0.5]];portConstraint=eastwest;top=0;left=0;right=0;bottom=0;html=1;" vertex="1" parent="YktuZhn3uDdsjPysNcHp-238">
          <mxGeometry y="90" width="180" height="30" as="geometry" />
        </mxCell>
        <mxCell id="YktuZhn3uDdsjPysNcHp-246" value="" style="shape=partialRectangle;connectable=0;fillColor=none;top=0;left=0;bottom=0;right=0;editable=1;overflow=hidden;html=1;whiteSpace=wrap;" vertex="1" parent="YktuZhn3uDdsjPysNcHp-245">
          <mxGeometry width="60" height="30" as="geometry">
            <mxRectangle width="60" height="30" as="alternateBounds" />
          </mxGeometry>
        </mxCell>
        <mxCell id="YktuZhn3uDdsjPysNcHp-247" value="Certificate" style="shape=partialRectangle;connectable=0;fillColor=none;top=0;left=0;bottom=0;right=0;align=left;spacingLeft=6;overflow=hidden;html=1;whiteSpace=wrap;" vertex="1" parent="YktuZhn3uDdsjPysNcHp-245">
          <mxGeometry x="60" width="120" height="30" as="geometry">
            <mxRectangle width="120" height="30" as="alternateBounds" />
          </mxGeometry>
        </mxCell>
        <mxCell id="YktuZhn3uDdsjPysNcHp-259" style="edgeStyle=orthogonalEdgeStyle;rounded=0;orthogonalLoop=1;jettySize=auto;html=1;exitX=1;exitY=0.5;exitDx=0;exitDy=0;entryX=0;entryY=0.5;entryDx=0;entryDy=0;" edge="1" parent="1" source="YktuZhn3uDdsjPysNcHp-257" target="YktuZhn3uDdsjPysNcHp-163">
          <mxGeometry relative="1" as="geometry" />
        </mxCell>
        <mxCell id="YktuZhn3uDdsjPysNcHp-261" style="edgeStyle=orthogonalEdgeStyle;rounded=0;orthogonalLoop=1;jettySize=auto;html=1;exitX=0.5;exitY=1;exitDx=0;exitDy=0;entryX=0;entryY=0.5;entryDx=0;entryDy=0;" edge="1" parent="1" source="YktuZhn3uDdsjPysNcHp-257" target="YktuZhn3uDdsjPysNcHp-204">
          <mxGeometry relative="1" as="geometry" />
        </mxCell>
        <mxCell id="YktuZhn3uDdsjPysNcHp-264" style="edgeStyle=orthogonalEdgeStyle;rounded=0;orthogonalLoop=1;jettySize=auto;html=1;exitX=0;exitY=0.5;exitDx=0;exitDy=0;" edge="1" parent="1" source="YktuZhn3uDdsjPysNcHp-257">
          <mxGeometry relative="1" as="geometry">
            <mxPoint x="920" y="320" as="targetPoint" />
          </mxGeometry>
        </mxCell>
        <mxCell id="YktuZhn3uDdsjPysNcHp-257" value="Personal&lt;div&gt;Details&lt;/div&gt;" style="shape=rhombus;perimeter=rhombusPerimeter;whiteSpace=wrap;html=1;align=center;" vertex="1" parent="1">
          <mxGeometry x="970" y="290" width="120" height="80" as="geometry" />
        </mxCell>
        <mxCell id="YktuZhn3uDdsjPysNcHp-260" style="edgeStyle=orthogonalEdgeStyle;rounded=0;orthogonalLoop=1;jettySize=auto;html=1;entryX=0.011;entryY=0.8;entryDx=0;entryDy=0;entryPerimeter=0;" edge="1" parent="1" source="YktuZhn3uDdsjPysNcHp-257" target="YktuZhn3uDdsjPysNcHp-185">
          <mxGeometry relative="1" as="geometry" />
        </mxCell>
        <mxCell id="YktuZhn3uDdsjPysNcHp-272" style="edgeStyle=orthogonalEdgeStyle;rounded=0;orthogonalLoop=1;jettySize=auto;html=1;exitX=0;exitY=0.5;exitDx=0;exitDy=0;" edge="1" parent="1" source="YktuZhn3uDdsjPysNcHp-265">
          <mxGeometry relative="1" as="geometry">
            <mxPoint x="640" y="275" as="targetPoint" />
          </mxGeometry>
        </mxCell>
        <mxCell id="YktuZhn3uDdsjPysNcHp-265" value="Person" style="shape=rhombus;perimeter=rhombusPerimeter;whiteSpace=wrap;html=1;align=center;" vertex="1" parent="1">
          <mxGeometry x="660" y="250" width="50" height="50" as="geometry" />
        </mxCell>
        <mxCell id="YktuZhn3uDdsjPysNcHp-277" style="edgeStyle=orthogonalEdgeStyle;rounded=0;orthogonalLoop=1;jettySize=auto;html=1;exitX=0.5;exitY=0;exitDx=0;exitDy=0;entryX=0;entryY=0.2;entryDx=0;entryDy=0;entryPerimeter=0;" edge="1" parent="1" source="YktuZhn3uDdsjPysNcHp-265" target="YktuZhn3uDdsjPysNcHp-139">
          <mxGeometry relative="1" as="geometry" />
        </mxCell>
        <mxCell id="YktuZhn3uDdsjPysNcHp-279" style="edgeStyle=orthogonalEdgeStyle;rounded=0;orthogonalLoop=1;jettySize=auto;html=1;exitX=0.5;exitY=0;exitDx=0;exitDy=0;entryX=0;entryY=0.5;entryDx=0;entryDy=0;" edge="1" parent="1" source="YktuZhn3uDdsjPysNcHp-278" target="YktuZhn3uDdsjPysNcHp-21">
          <mxGeometry relative="1" as="geometry" />
        </mxCell>
        <mxCell id="YktuZhn3uDdsjPysNcHp-280" style="edgeStyle=orthogonalEdgeStyle;rounded=0;orthogonalLoop=1;jettySize=auto;html=1;exitX=0;exitY=0.5;exitDx=0;exitDy=0;" edge="1" parent="1" source="YktuZhn3uDdsjPysNcHp-278">
          <mxGeometry relative="1" as="geometry">
            <mxPoint x="340" y="255" as="targetPoint" />
          </mxGeometry>
        </mxCell>
        <mxCell id="YktuZhn3uDdsjPysNcHp-278" value="User" style="shape=rhombus;perimeter=rhombusPerimeter;whiteSpace=wrap;html=1;align=center;" vertex="1" parent="1">
          <mxGeometry x="360" y="230" width="55" height="50" as="geometry" />
        </mxCell>
        <mxCell id="YktuZhn3uDdsjPysNcHp-283" style="edgeStyle=orthogonalEdgeStyle;rounded=0;orthogonalLoop=1;jettySize=auto;html=1;exitX=0.5;exitY=0;exitDx=0;exitDy=0;" edge="1" parent="1" source="YktuZhn3uDdsjPysNcHp-281">
          <mxGeometry relative="1" as="geometry">
            <mxPoint x="540" y="340" as="targetPoint" />
          </mxGeometry>
        </mxCell>
        <mxCell id="YktuZhn3uDdsjPysNcHp-281" value="Experience" style="shape=rhombus;perimeter=rhombusPerimeter;whiteSpace=wrap;html=1;align=center;" vertex="1" parent="1">
          <mxGeometry x="500" y="410" width="80" height="50" as="geometry" />
        </mxCell>
        <mxCell id="YktuZhn3uDdsjPysNcHp-284" style="edgeStyle=orthogonalEdgeStyle;rounded=0;orthogonalLoop=1;jettySize=auto;html=1;exitX=0;exitY=0.5;exitDx=0;exitDy=0;entryX=1.022;entryY=0.267;entryDx=0;entryDy=0;entryPerimeter=0;" edge="1" parent="1" source="YktuZhn3uDdsjPysNcHp-281" target="YktuZhn3uDdsjPysNcHp-223">
          <mxGeometry relative="1" as="geometry" />
        </mxCell>
        <mxCell id="YktuZhn3uDdsjPysNcHp-289" style="edgeStyle=orthogonalEdgeStyle;rounded=0;orthogonalLoop=1;jettySize=auto;html=1;exitX=0.5;exitY=0;exitDx=0;exitDy=0;" edge="1" parent="1" source="YktuZhn3uDdsjPysNcHp-285" target="YktuZhn3uDdsjPysNcHp-242">
          <mxGeometry relative="1" as="geometry" />
        </mxCell>
        <mxCell id="YktuZhn3uDdsjPysNcHp-285" value="Certificate" style="shape=rhombus;perimeter=rhombusPerimeter;whiteSpace=wrap;html=1;align=center;" vertex="1" parent="1">
          <mxGeometry x="170" y="570" width="80" height="50" as="geometry" />
        </mxCell>
        <mxCell id="YktuZhn3uDdsjPysNcHp-288" style="edgeStyle=orthogonalEdgeStyle;rounded=0;orthogonalLoop=1;jettySize=auto;html=1;exitX=1;exitY=0.5;exitDx=0;exitDy=0;entryX=0.783;entryY=0.967;entryDx=0;entryDy=0;entryPerimeter=0;" edge="1" parent="1" source="YktuZhn3uDdsjPysNcHp-285" target="YktuZhn3uDdsjPysNcHp-229">
          <mxGeometry relative="1" as="geometry" />
        </mxCell>
        <mxCell id="YktuZhn3uDdsjPysNcHp-291" value="&lt;b&gt;&lt;font style=&quot;color: rgb(102, 204, 0); font-size: 68px;&quot;&gt;Friends-Book (Social Media ERD)&lt;/font&gt;&lt;/b&gt;&lt;div&gt;&lt;b&gt;&lt;font style=&quot;font-size: 40px;&quot;&gt;&lt;br&gt;&lt;/font&gt;&lt;/b&gt;&lt;/div&gt;" style="text;html=1;align=center;verticalAlign=middle;resizable=0;points=[];autosize=1;strokeColor=none;fillColor=none;" vertex="1" parent="1">
          <mxGeometry x="260" y="-180" width="1100" height="140" as="geometry" />
        </mxCell>
        <mxCell id="YktuZhn3uDdsjPysNcHp-684" style="edgeStyle=orthogonalEdgeStyle;rounded=0;orthogonalLoop=1;jettySize=auto;html=1;exitX=0.75;exitY=1;exitDx=0;exitDy=0;" edge="1" parent="1" source="YktuZhn3uDdsjPysNcHp-292">
          <mxGeometry relative="1" as="geometry">
            <mxPoint x="750" y="1040" as="targetPoint" />
            <Array as="points">
              <mxPoint x="449" y="1040" />
            </Array>
          </mxGeometry>
        </mxCell>
        <mxCell id="YktuZhn3uDdsjPysNcHp-292" value="Photo" style="shape=table;startSize=30;container=1;collapsible=1;childLayout=tableLayout;fixedRows=1;rowLines=0;fontStyle=1;align=center;resizeLast=1;html=1;whiteSpace=wrap;fillColor=#d5e8d4;strokeColor=#82b366;" vertex="1" parent="1">
          <mxGeometry x="295" y="730" width="205" height="180" as="geometry" />
        </mxCell>
        <mxCell id="YktuZhn3uDdsjPysNcHp-293" value="" style="shape=tableRow;horizontal=0;startSize=0;swimlaneHead=0;swimlaneBody=0;fillColor=none;collapsible=0;dropTarget=0;points=[[0,0.5],[1,0.5]];portConstraint=eastwest;top=0;left=0;right=0;bottom=0;html=1;" vertex="1" parent="YktuZhn3uDdsjPysNcHp-292">
          <mxGeometry y="30" width="205" height="30" as="geometry" />
        </mxCell>
        <mxCell id="YktuZhn3uDdsjPysNcHp-294" value="PK" style="shape=partialRectangle;connectable=0;fillColor=#ffe6cc;top=0;left=0;bottom=0;right=0;fontStyle=1;overflow=hidden;html=1;whiteSpace=wrap;strokeColor=#d79b00;" vertex="1" parent="YktuZhn3uDdsjPysNcHp-293">
          <mxGeometry width="60" height="30" as="geometry">
            <mxRectangle width="60" height="30" as="alternateBounds" />
          </mxGeometry>
        </mxCell>
        <mxCell id="YktuZhn3uDdsjPysNcHp-295" value="ID" style="shape=partialRectangle;connectable=0;fillColor=#ffe6cc;top=0;left=0;bottom=0;right=0;align=left;spacingLeft=6;fontStyle=5;overflow=hidden;html=1;whiteSpace=wrap;strokeColor=#d79b00;" vertex="1" parent="YktuZhn3uDdsjPysNcHp-293">
          <mxGeometry x="60" width="145" height="30" as="geometry">
            <mxRectangle width="145" height="30" as="alternateBounds" />
          </mxGeometry>
        </mxCell>
        <mxCell id="YktuZhn3uDdsjPysNcHp-296" value="" style="shape=tableRow;horizontal=0;startSize=0;swimlaneHead=0;swimlaneBody=0;fillColor=none;collapsible=0;dropTarget=0;points=[[0,0.5],[1,0.5]];portConstraint=eastwest;top=0;left=0;right=0;bottom=1;html=1;" vertex="1" parent="YktuZhn3uDdsjPysNcHp-292">
          <mxGeometry y="60" width="205" height="30" as="geometry" />
        </mxCell>
        <mxCell id="YktuZhn3uDdsjPysNcHp-297" value="FK" style="shape=partialRectangle;connectable=0;fillColor=#dae8fc;top=0;left=0;bottom=0;right=0;fontStyle=1;overflow=hidden;html=1;whiteSpace=wrap;strokeColor=#6c8ebf;" vertex="1" parent="YktuZhn3uDdsjPysNcHp-296">
          <mxGeometry width="60" height="30" as="geometry">
            <mxRectangle width="60" height="30" as="alternateBounds" />
          </mxGeometry>
        </mxCell>
        <mxCell id="YktuZhn3uDdsjPysNcHp-298" value="Person (Author)" style="shape=partialRectangle;connectable=0;fillColor=#dae8fc;top=0;left=0;bottom=0;right=0;align=left;spacingLeft=6;fontStyle=5;overflow=hidden;html=1;whiteSpace=wrap;strokeColor=#6c8ebf;" vertex="1" parent="YktuZhn3uDdsjPysNcHp-296">
          <mxGeometry x="60" width="145" height="30" as="geometry">
            <mxRectangle width="145" height="30" as="alternateBounds" />
          </mxGeometry>
        </mxCell>
        <mxCell id="YktuZhn3uDdsjPysNcHp-299" value="" style="shape=tableRow;horizontal=0;startSize=0;swimlaneHead=0;swimlaneBody=0;fillColor=none;collapsible=0;dropTarget=0;points=[[0,0.5],[1,0.5]];portConstraint=eastwest;top=0;left=0;right=0;bottom=0;html=1;" vertex="1" parent="YktuZhn3uDdsjPysNcHp-292">
          <mxGeometry y="90" width="205" height="30" as="geometry" />
        </mxCell>
        <mxCell id="YktuZhn3uDdsjPysNcHp-300" value="" style="shape=partialRectangle;connectable=0;fillColor=none;top=0;left=0;bottom=0;right=0;editable=1;overflow=hidden;html=1;whiteSpace=wrap;" vertex="1" parent="YktuZhn3uDdsjPysNcHp-299">
          <mxGeometry width="60" height="30" as="geometry">
            <mxRectangle width="60" height="30" as="alternateBounds" />
          </mxGeometry>
        </mxCell>
        <mxCell id="YktuZhn3uDdsjPysNcHp-301" value="Image" style="shape=partialRectangle;connectable=0;fillColor=none;top=0;left=0;bottom=0;right=0;align=left;spacingLeft=6;overflow=hidden;html=1;whiteSpace=wrap;" vertex="1" parent="YktuZhn3uDdsjPysNcHp-299">
          <mxGeometry x="60" width="145" height="30" as="geometry">
            <mxRectangle width="145" height="30" as="alternateBounds" />
          </mxGeometry>
        </mxCell>
        <mxCell id="YktuZhn3uDdsjPysNcHp-318" value="" style="shape=tableRow;horizontal=0;startSize=0;swimlaneHead=0;swimlaneBody=0;fillColor=none;collapsible=0;dropTarget=0;points=[[0,0.5],[1,0.5]];portConstraint=eastwest;top=0;left=0;right=0;bottom=0;html=1;" vertex="1" parent="YktuZhn3uDdsjPysNcHp-292">
          <mxGeometry y="120" width="205" height="20" as="geometry" />
        </mxCell>
        <mxCell id="YktuZhn3uDdsjPysNcHp-319" value="" style="shape=partialRectangle;connectable=0;fillColor=none;top=0;left=0;bottom=0;right=0;editable=1;overflow=hidden;html=1;whiteSpace=wrap;" vertex="1" parent="YktuZhn3uDdsjPysNcHp-318">
          <mxGeometry width="60" height="20" as="geometry">
            <mxRectangle width="60" height="20" as="alternateBounds" />
          </mxGeometry>
        </mxCell>
        <mxCell id="YktuZhn3uDdsjPysNcHp-320" value="Emoji (Like,Care etc)" style="shape=partialRectangle;connectable=0;fillColor=none;top=0;left=0;bottom=0;right=0;align=left;spacingLeft=6;overflow=hidden;html=1;whiteSpace=wrap;" vertex="1" parent="YktuZhn3uDdsjPysNcHp-318">
          <mxGeometry x="60" width="145" height="20" as="geometry">
            <mxRectangle width="145" height="20" as="alternateBounds" />
          </mxGeometry>
        </mxCell>
        <mxCell id="YktuZhn3uDdsjPysNcHp-321" value="" style="shape=tableRow;horizontal=0;startSize=0;swimlaneHead=0;swimlaneBody=0;fillColor=none;collapsible=0;dropTarget=0;points=[[0,0.5],[1,0.5]];portConstraint=eastwest;top=0;left=0;right=0;bottom=0;html=1;" vertex="1" parent="YktuZhn3uDdsjPysNcHp-292">
          <mxGeometry y="140" width="205" height="30" as="geometry" />
        </mxCell>
        <mxCell id="YktuZhn3uDdsjPysNcHp-322" value="" style="shape=partialRectangle;connectable=0;fillColor=none;top=0;left=0;bottom=0;right=0;editable=1;overflow=hidden;html=1;whiteSpace=wrap;" vertex="1" parent="YktuZhn3uDdsjPysNcHp-321">
          <mxGeometry width="60" height="30" as="geometry">
            <mxRectangle width="60" height="30" as="alternateBounds" />
          </mxGeometry>
        </mxCell>
        <mxCell id="YktuZhn3uDdsjPysNcHp-323" value="Comment" style="shape=partialRectangle;connectable=0;fillColor=none;top=0;left=0;bottom=0;right=0;align=left;spacingLeft=6;overflow=hidden;html=1;whiteSpace=wrap;" vertex="1" parent="YktuZhn3uDdsjPysNcHp-321">
          <mxGeometry x="60" width="145" height="30" as="geometry">
            <mxRectangle width="145" height="30" as="alternateBounds" />
          </mxGeometry>
        </mxCell>
        <mxCell id="YktuZhn3uDdsjPysNcHp-340" value="Post" style="shape=table;startSize=30;container=1;collapsible=1;childLayout=tableLayout;fixedRows=1;rowLines=0;fontStyle=1;align=center;resizeLast=1;html=1;whiteSpace=wrap;fillColor=#d5e8d4;strokeColor=#82b366;" vertex="1" parent="1">
          <mxGeometry x="660" y="730" width="205" height="250" as="geometry" />
        </mxCell>
        <mxCell id="YktuZhn3uDdsjPysNcHp-341" value="" style="shape=tableRow;horizontal=0;startSize=0;swimlaneHead=0;swimlaneBody=0;fillColor=none;collapsible=0;dropTarget=0;points=[[0,0.5],[1,0.5]];portConstraint=eastwest;top=0;left=0;right=0;bottom=0;html=1;" vertex="1" parent="YktuZhn3uDdsjPysNcHp-340">
          <mxGeometry y="30" width="205" height="30" as="geometry" />
        </mxCell>
        <mxCell id="YktuZhn3uDdsjPysNcHp-342" value="PK" style="shape=partialRectangle;connectable=0;fillColor=#ffe6cc;top=0;left=0;bottom=0;right=0;fontStyle=1;overflow=hidden;html=1;whiteSpace=wrap;strokeColor=#d79b00;" vertex="1" parent="YktuZhn3uDdsjPysNcHp-341">
          <mxGeometry width="60" height="30" as="geometry">
            <mxRectangle width="60" height="30" as="alternateBounds" />
          </mxGeometry>
        </mxCell>
        <mxCell id="YktuZhn3uDdsjPysNcHp-343" value="ID" style="shape=partialRectangle;connectable=0;fillColor=#ffe6cc;top=0;left=0;bottom=0;right=0;align=left;spacingLeft=6;fontStyle=5;overflow=hidden;html=1;whiteSpace=wrap;strokeColor=#d79b00;" vertex="1" parent="YktuZhn3uDdsjPysNcHp-341">
          <mxGeometry x="60" width="145" height="30" as="geometry">
            <mxRectangle width="145" height="30" as="alternateBounds" />
          </mxGeometry>
        </mxCell>
        <mxCell id="YktuZhn3uDdsjPysNcHp-344" value="" style="shape=tableRow;horizontal=0;startSize=0;swimlaneHead=0;swimlaneBody=0;fillColor=none;collapsible=0;dropTarget=0;points=[[0,0.5],[1,0.5]];portConstraint=eastwest;top=0;left=0;right=0;bottom=1;html=1;" vertex="1" parent="YktuZhn3uDdsjPysNcHp-340">
          <mxGeometry y="60" width="205" height="30" as="geometry" />
        </mxCell>
        <mxCell id="YktuZhn3uDdsjPysNcHp-345" value="FK" style="shape=partialRectangle;connectable=0;fillColor=#dae8fc;top=0;left=0;bottom=0;right=0;fontStyle=1;overflow=hidden;html=1;whiteSpace=wrap;strokeColor=#6c8ebf;" vertex="1" parent="YktuZhn3uDdsjPysNcHp-344">
          <mxGeometry width="60" height="30" as="geometry">
            <mxRectangle width="60" height="30" as="alternateBounds" />
          </mxGeometry>
        </mxCell>
        <mxCell id="YktuZhn3uDdsjPysNcHp-346" value="Person (Author)" style="shape=partialRectangle;connectable=0;fillColor=#dae8fc;top=0;left=0;bottom=0;right=0;align=left;spacingLeft=6;fontStyle=5;overflow=hidden;html=1;whiteSpace=wrap;strokeColor=#6c8ebf;" vertex="1" parent="YktuZhn3uDdsjPysNcHp-344">
          <mxGeometry x="60" width="145" height="30" as="geometry">
            <mxRectangle width="145" height="30" as="alternateBounds" />
          </mxGeometry>
        </mxCell>
        <mxCell id="YktuZhn3uDdsjPysNcHp-347" value="" style="shape=tableRow;horizontal=0;startSize=0;swimlaneHead=0;swimlaneBody=0;fillColor=none;collapsible=0;dropTarget=0;points=[[0,0.5],[1,0.5]];portConstraint=eastwest;top=0;left=0;right=0;bottom=0;html=1;" vertex="1" parent="YktuZhn3uDdsjPysNcHp-340">
          <mxGeometry y="90" width="205" height="30" as="geometry" />
        </mxCell>
        <mxCell id="YktuZhn3uDdsjPysNcHp-348" value="" style="shape=partialRectangle;connectable=0;fillColor=none;top=0;left=0;bottom=0;right=0;editable=1;overflow=hidden;html=1;whiteSpace=wrap;" vertex="1" parent="YktuZhn3uDdsjPysNcHp-347">
          <mxGeometry width="60" height="30" as="geometry">
            <mxRectangle width="60" height="30" as="alternateBounds" />
          </mxGeometry>
        </mxCell>
        <mxCell id="YktuZhn3uDdsjPysNcHp-349" value="Description" style="shape=partialRectangle;connectable=0;fillColor=none;top=0;left=0;bottom=0;right=0;align=left;spacingLeft=6;overflow=hidden;html=1;whiteSpace=wrap;" vertex="1" parent="YktuZhn3uDdsjPysNcHp-347">
          <mxGeometry x="60" width="145" height="30" as="geometry">
            <mxRectangle width="145" height="30" as="alternateBounds" />
          </mxGeometry>
        </mxCell>
        <mxCell id="YktuZhn3uDdsjPysNcHp-350" value="" style="shape=tableRow;horizontal=0;startSize=0;swimlaneHead=0;swimlaneBody=0;fillColor=none;collapsible=0;dropTarget=0;points=[[0,0.5],[1,0.5]];portConstraint=eastwest;top=0;left=0;right=0;bottom=0;html=1;" vertex="1" parent="YktuZhn3uDdsjPysNcHp-340">
          <mxGeometry y="120" width="205" height="30" as="geometry" />
        </mxCell>
        <mxCell id="YktuZhn3uDdsjPysNcHp-351" value="" style="shape=partialRectangle;connectable=0;fillColor=none;top=0;left=0;bottom=0;right=0;editable=1;overflow=hidden;html=1;whiteSpace=wrap;" vertex="1" parent="YktuZhn3uDdsjPysNcHp-350">
          <mxGeometry width="60" height="30" as="geometry">
            <mxRectangle width="60" height="30" as="alternateBounds" />
          </mxGeometry>
        </mxCell>
        <mxCell id="YktuZhn3uDdsjPysNcHp-352" value="Photo" style="shape=partialRectangle;connectable=0;fillColor=none;top=0;left=0;bottom=0;right=0;align=left;spacingLeft=6;overflow=hidden;html=1;whiteSpace=wrap;" vertex="1" parent="YktuZhn3uDdsjPysNcHp-350">
          <mxGeometry x="60" width="145" height="30" as="geometry">
            <mxRectangle width="145" height="30" as="alternateBounds" />
          </mxGeometry>
        </mxCell>
        <mxCell id="YktuZhn3uDdsjPysNcHp-353" value="" style="shape=tableRow;horizontal=0;startSize=0;swimlaneHead=0;swimlaneBody=0;fillColor=none;collapsible=0;dropTarget=0;points=[[0,0.5],[1,0.5]];portConstraint=eastwest;top=0;left=0;right=0;bottom=0;html=1;" vertex="1" parent="YktuZhn3uDdsjPysNcHp-340">
          <mxGeometry y="150" width="205" height="30" as="geometry" />
        </mxCell>
        <mxCell id="YktuZhn3uDdsjPysNcHp-354" value="" style="shape=partialRectangle;connectable=0;fillColor=none;top=0;left=0;bottom=0;right=0;editable=1;overflow=hidden;html=1;whiteSpace=wrap;" vertex="1" parent="YktuZhn3uDdsjPysNcHp-353">
          <mxGeometry width="60" height="30" as="geometry">
            <mxRectangle width="60" height="30" as="alternateBounds" />
          </mxGeometry>
        </mxCell>
        <mxCell id="YktuZhn3uDdsjPysNcHp-355" value="Video" style="shape=partialRectangle;connectable=0;fillColor=none;top=0;left=0;bottom=0;right=0;align=left;spacingLeft=6;overflow=hidden;html=1;whiteSpace=wrap;" vertex="1" parent="YktuZhn3uDdsjPysNcHp-353">
          <mxGeometry x="60" width="145" height="30" as="geometry">
            <mxRectangle width="145" height="30" as="alternateBounds" />
          </mxGeometry>
        </mxCell>
        <mxCell id="YktuZhn3uDdsjPysNcHp-356" value="" style="shape=tableRow;horizontal=0;startSize=0;swimlaneHead=0;swimlaneBody=0;fillColor=none;collapsible=0;dropTarget=0;points=[[0,0.5],[1,0.5]];portConstraint=eastwest;top=0;left=0;right=0;bottom=0;html=1;" vertex="1" parent="YktuZhn3uDdsjPysNcHp-340">
          <mxGeometry y="180" width="205" height="30" as="geometry" />
        </mxCell>
        <mxCell id="YktuZhn3uDdsjPysNcHp-357" value="" style="shape=partialRectangle;connectable=0;fillColor=none;top=0;left=0;bottom=0;right=0;editable=1;overflow=hidden;html=1;whiteSpace=wrap;" vertex="1" parent="YktuZhn3uDdsjPysNcHp-356">
          <mxGeometry width="60" height="30" as="geometry">
            <mxRectangle width="60" height="30" as="alternateBounds" />
          </mxGeometry>
        </mxCell>
        <mxCell id="YktuZhn3uDdsjPysNcHp-358" value="Emoji" style="shape=partialRectangle;connectable=0;fillColor=none;top=0;left=0;bottom=0;right=0;align=left;spacingLeft=6;overflow=hidden;html=1;whiteSpace=wrap;" vertex="1" parent="YktuZhn3uDdsjPysNcHp-356">
          <mxGeometry x="60" width="145" height="30" as="geometry">
            <mxRectangle width="145" height="30" as="alternateBounds" />
          </mxGeometry>
        </mxCell>
        <mxCell id="YktuZhn3uDdsjPysNcHp-378" value="" style="shape=tableRow;horizontal=0;startSize=0;swimlaneHead=0;swimlaneBody=0;fillColor=none;collapsible=0;dropTarget=0;points=[[0,0.5],[1,0.5]];portConstraint=eastwest;top=0;left=0;right=0;bottom=0;html=1;" vertex="1" parent="YktuZhn3uDdsjPysNcHp-340">
          <mxGeometry y="210" width="205" height="30" as="geometry" />
        </mxCell>
        <mxCell id="YktuZhn3uDdsjPysNcHp-379" value="" style="shape=partialRectangle;connectable=0;fillColor=none;top=0;left=0;bottom=0;right=0;editable=1;overflow=hidden;html=1;whiteSpace=wrap;" vertex="1" parent="YktuZhn3uDdsjPysNcHp-378">
          <mxGeometry width="60" height="30" as="geometry">
            <mxRectangle width="60" height="30" as="alternateBounds" />
          </mxGeometry>
        </mxCell>
        <mxCell id="YktuZhn3uDdsjPysNcHp-380" value="Comment" style="shape=partialRectangle;connectable=0;fillColor=none;top=0;left=0;bottom=0;right=0;align=left;spacingLeft=6;overflow=hidden;html=1;whiteSpace=wrap;" vertex="1" parent="YktuZhn3uDdsjPysNcHp-378">
          <mxGeometry x="60" width="145" height="30" as="geometry">
            <mxRectangle width="145" height="30" as="alternateBounds" />
          </mxGeometry>
        </mxCell>
        <mxCell id="YktuZhn3uDdsjPysNcHp-381" value="Video" style="shape=table;startSize=30;container=1;collapsible=1;childLayout=tableLayout;fixedRows=1;rowLines=0;fontStyle=1;align=center;resizeLast=1;html=1;whiteSpace=wrap;fillColor=#d5e8d4;strokeColor=#82b366;" vertex="1" parent="1">
          <mxGeometry x="950" y="840" width="205" height="280" as="geometry" />
        </mxCell>
        <mxCell id="YktuZhn3uDdsjPysNcHp-382" value="" style="shape=tableRow;horizontal=0;startSize=0;swimlaneHead=0;swimlaneBody=0;fillColor=none;collapsible=0;dropTarget=0;points=[[0,0.5],[1,0.5]];portConstraint=eastwest;top=0;left=0;right=0;bottom=0;html=1;" vertex="1" parent="YktuZhn3uDdsjPysNcHp-381">
          <mxGeometry y="30" width="205" height="30" as="geometry" />
        </mxCell>
        <mxCell id="YktuZhn3uDdsjPysNcHp-383" value="PK" style="shape=partialRectangle;connectable=0;fillColor=#ffe6cc;top=0;left=0;bottom=0;right=0;fontStyle=1;overflow=hidden;html=1;whiteSpace=wrap;strokeColor=#d79b00;" vertex="1" parent="YktuZhn3uDdsjPysNcHp-382">
          <mxGeometry width="60" height="30" as="geometry">
            <mxRectangle width="60" height="30" as="alternateBounds" />
          </mxGeometry>
        </mxCell>
        <mxCell id="YktuZhn3uDdsjPysNcHp-384" value="ID" style="shape=partialRectangle;connectable=0;fillColor=#ffe6cc;top=0;left=0;bottom=0;right=0;align=left;spacingLeft=6;fontStyle=5;overflow=hidden;html=1;whiteSpace=wrap;strokeColor=#d79b00;" vertex="1" parent="YktuZhn3uDdsjPysNcHp-382">
          <mxGeometry x="60" width="145" height="30" as="geometry">
            <mxRectangle width="145" height="30" as="alternateBounds" />
          </mxGeometry>
        </mxCell>
        <mxCell id="YktuZhn3uDdsjPysNcHp-385" value="" style="shape=tableRow;horizontal=0;startSize=0;swimlaneHead=0;swimlaneBody=0;fillColor=none;collapsible=0;dropTarget=0;points=[[0,0.5],[1,0.5]];portConstraint=eastwest;top=0;left=0;right=0;bottom=1;html=1;" vertex="1" parent="YktuZhn3uDdsjPysNcHp-381">
          <mxGeometry y="60" width="205" height="30" as="geometry" />
        </mxCell>
        <mxCell id="YktuZhn3uDdsjPysNcHp-386" value="FK" style="shape=partialRectangle;connectable=0;fillColor=#dae8fc;top=0;left=0;bottom=0;right=0;fontStyle=1;overflow=hidden;html=1;whiteSpace=wrap;strokeColor=#6c8ebf;" vertex="1" parent="YktuZhn3uDdsjPysNcHp-385">
          <mxGeometry width="60" height="30" as="geometry">
            <mxRectangle width="60" height="30" as="alternateBounds" />
          </mxGeometry>
        </mxCell>
        <mxCell id="YktuZhn3uDdsjPysNcHp-387" value="Person (Author)" style="shape=partialRectangle;connectable=0;fillColor=#dae8fc;top=0;left=0;bottom=0;right=0;align=left;spacingLeft=6;fontStyle=5;overflow=hidden;html=1;whiteSpace=wrap;strokeColor=#6c8ebf;" vertex="1" parent="YktuZhn3uDdsjPysNcHp-385">
          <mxGeometry x="60" width="145" height="30" as="geometry">
            <mxRectangle width="145" height="30" as="alternateBounds" />
          </mxGeometry>
        </mxCell>
        <mxCell id="YktuZhn3uDdsjPysNcHp-388" value="" style="shape=tableRow;horizontal=0;startSize=0;swimlaneHead=0;swimlaneBody=0;fillColor=none;collapsible=0;dropTarget=0;points=[[0,0.5],[1,0.5]];portConstraint=eastwest;top=0;left=0;right=0;bottom=0;html=1;" vertex="1" parent="YktuZhn3uDdsjPysNcHp-381">
          <mxGeometry y="90" width="205" height="30" as="geometry" />
        </mxCell>
        <mxCell id="YktuZhn3uDdsjPysNcHp-389" value="" style="shape=partialRectangle;connectable=0;fillColor=none;top=0;left=0;bottom=0;right=0;editable=1;overflow=hidden;html=1;whiteSpace=wrap;" vertex="1" parent="YktuZhn3uDdsjPysNcHp-388">
          <mxGeometry width="60" height="30" as="geometry">
            <mxRectangle width="60" height="30" as="alternateBounds" />
          </mxGeometry>
        </mxCell>
        <mxCell id="YktuZhn3uDdsjPysNcHp-390" value="Tag" style="shape=partialRectangle;connectable=0;fillColor=none;top=0;left=0;bottom=0;right=0;align=left;spacingLeft=6;overflow=hidden;html=1;whiteSpace=wrap;" vertex="1" parent="YktuZhn3uDdsjPysNcHp-388">
          <mxGeometry x="60" width="145" height="30" as="geometry">
            <mxRectangle width="145" height="30" as="alternateBounds" />
          </mxGeometry>
        </mxCell>
        <mxCell id="YktuZhn3uDdsjPysNcHp-391" value="" style="shape=tableRow;horizontal=0;startSize=0;swimlaneHead=0;swimlaneBody=0;fillColor=none;collapsible=0;dropTarget=0;points=[[0,0.5],[1,0.5]];portConstraint=eastwest;top=0;left=0;right=0;bottom=0;html=1;" vertex="1" parent="YktuZhn3uDdsjPysNcHp-381">
          <mxGeometry y="120" width="205" height="30" as="geometry" />
        </mxCell>
        <mxCell id="YktuZhn3uDdsjPysNcHp-392" value="" style="shape=partialRectangle;connectable=0;fillColor=none;top=0;left=0;bottom=0;right=0;editable=1;overflow=hidden;html=1;whiteSpace=wrap;" vertex="1" parent="YktuZhn3uDdsjPysNcHp-391">
          <mxGeometry width="60" height="30" as="geometry">
            <mxRectangle width="60" height="30" as="alternateBounds" />
          </mxGeometry>
        </mxCell>
        <mxCell id="YktuZhn3uDdsjPysNcHp-393" value="Caption" style="shape=partialRectangle;connectable=0;fillColor=none;top=0;left=0;bottom=0;right=0;align=left;spacingLeft=6;overflow=hidden;html=1;whiteSpace=wrap;" vertex="1" parent="YktuZhn3uDdsjPysNcHp-391">
          <mxGeometry x="60" width="145" height="30" as="geometry">
            <mxRectangle width="145" height="30" as="alternateBounds" />
          </mxGeometry>
        </mxCell>
        <mxCell id="YktuZhn3uDdsjPysNcHp-394" value="" style="shape=tableRow;horizontal=0;startSize=0;swimlaneHead=0;swimlaneBody=0;fillColor=none;collapsible=0;dropTarget=0;points=[[0,0.5],[1,0.5]];portConstraint=eastwest;top=0;left=0;right=0;bottom=0;html=1;" vertex="1" parent="YktuZhn3uDdsjPysNcHp-381">
          <mxGeometry y="150" width="205" height="30" as="geometry" />
        </mxCell>
        <mxCell id="YktuZhn3uDdsjPysNcHp-395" value="" style="shape=partialRectangle;connectable=0;fillColor=none;top=0;left=0;bottom=0;right=0;editable=1;overflow=hidden;html=1;whiteSpace=wrap;" vertex="1" parent="YktuZhn3uDdsjPysNcHp-394">
          <mxGeometry width="60" height="30" as="geometry">
            <mxRectangle width="60" height="30" as="alternateBounds" />
          </mxGeometry>
        </mxCell>
        <mxCell id="YktuZhn3uDdsjPysNcHp-396" value="Video" style="shape=partialRectangle;connectable=0;fillColor=none;top=0;left=0;bottom=0;right=0;align=left;spacingLeft=6;overflow=hidden;html=1;whiteSpace=wrap;" vertex="1" parent="YktuZhn3uDdsjPysNcHp-394">
          <mxGeometry x="60" width="145" height="30" as="geometry">
            <mxRectangle width="145" height="30" as="alternateBounds" />
          </mxGeometry>
        </mxCell>
        <mxCell id="YktuZhn3uDdsjPysNcHp-397" value="" style="shape=tableRow;horizontal=0;startSize=0;swimlaneHead=0;swimlaneBody=0;fillColor=none;collapsible=0;dropTarget=0;points=[[0,0.5],[1,0.5]];portConstraint=eastwest;top=0;left=0;right=0;bottom=0;html=1;" vertex="1" parent="YktuZhn3uDdsjPysNcHp-381">
          <mxGeometry y="180" width="205" height="30" as="geometry" />
        </mxCell>
        <mxCell id="YktuZhn3uDdsjPysNcHp-398" value="" style="shape=partialRectangle;connectable=0;fillColor=none;top=0;left=0;bottom=0;right=0;editable=1;overflow=hidden;html=1;whiteSpace=wrap;" vertex="1" parent="YktuZhn3uDdsjPysNcHp-397">
          <mxGeometry width="60" height="30" as="geometry">
            <mxRectangle width="60" height="30" as="alternateBounds" />
          </mxGeometry>
        </mxCell>
        <mxCell id="YktuZhn3uDdsjPysNcHp-399" value="Description" style="shape=partialRectangle;connectable=0;fillColor=none;top=0;left=0;bottom=0;right=0;align=left;spacingLeft=6;overflow=hidden;html=1;whiteSpace=wrap;" vertex="1" parent="YktuZhn3uDdsjPysNcHp-397">
          <mxGeometry x="60" width="145" height="30" as="geometry">
            <mxRectangle width="145" height="30" as="alternateBounds" />
          </mxGeometry>
        </mxCell>
        <mxCell id="YktuZhn3uDdsjPysNcHp-400" value="" style="shape=tableRow;horizontal=0;startSize=0;swimlaneHead=0;swimlaneBody=0;fillColor=none;collapsible=0;dropTarget=0;points=[[0,0.5],[1,0.5]];portConstraint=eastwest;top=0;left=0;right=0;bottom=0;html=1;" vertex="1" parent="YktuZhn3uDdsjPysNcHp-381">
          <mxGeometry y="210" width="205" height="30" as="geometry" />
        </mxCell>
        <mxCell id="YktuZhn3uDdsjPysNcHp-401" value="" style="shape=partialRectangle;connectable=0;fillColor=none;top=0;left=0;bottom=0;right=0;editable=1;overflow=hidden;html=1;whiteSpace=wrap;" vertex="1" parent="YktuZhn3uDdsjPysNcHp-400">
          <mxGeometry width="60" height="30" as="geometry">
            <mxRectangle width="60" height="30" as="alternateBounds" />
          </mxGeometry>
        </mxCell>
        <mxCell id="YktuZhn3uDdsjPysNcHp-402" value="Emoji" style="shape=partialRectangle;connectable=0;fillColor=none;top=0;left=0;bottom=0;right=0;align=left;spacingLeft=6;overflow=hidden;html=1;whiteSpace=wrap;" vertex="1" parent="YktuZhn3uDdsjPysNcHp-400">
          <mxGeometry x="60" width="145" height="30" as="geometry">
            <mxRectangle width="145" height="30" as="alternateBounds" />
          </mxGeometry>
        </mxCell>
        <mxCell id="YktuZhn3uDdsjPysNcHp-491" value="" style="shape=tableRow;horizontal=0;startSize=0;swimlaneHead=0;swimlaneBody=0;fillColor=none;collapsible=0;dropTarget=0;points=[[0,0.5],[1,0.5]];portConstraint=eastwest;top=0;left=0;right=0;bottom=0;html=1;" vertex="1" parent="YktuZhn3uDdsjPysNcHp-381">
          <mxGeometry y="240" width="205" height="30" as="geometry" />
        </mxCell>
        <mxCell id="YktuZhn3uDdsjPysNcHp-492" value="" style="shape=partialRectangle;connectable=0;fillColor=none;top=0;left=0;bottom=0;right=0;editable=1;overflow=hidden;html=1;whiteSpace=wrap;" vertex="1" parent="YktuZhn3uDdsjPysNcHp-491">
          <mxGeometry width="60" height="30" as="geometry">
            <mxRectangle width="60" height="30" as="alternateBounds" />
          </mxGeometry>
        </mxCell>
        <mxCell id="YktuZhn3uDdsjPysNcHp-493" value="Comment" style="shape=partialRectangle;connectable=0;fillColor=none;top=0;left=0;bottom=0;right=0;align=left;spacingLeft=6;overflow=hidden;html=1;whiteSpace=wrap;" vertex="1" parent="YktuZhn3uDdsjPysNcHp-491">
          <mxGeometry x="60" width="145" height="30" as="geometry">
            <mxRectangle width="145" height="30" as="alternateBounds" />
          </mxGeometry>
        </mxCell>
        <mxCell id="YktuZhn3uDdsjPysNcHp-495" style="edgeStyle=orthogonalEdgeStyle;rounded=0;orthogonalLoop=1;jettySize=auto;html=1;exitX=0.5;exitY=0;exitDx=0;exitDy=0;" edge="1" parent="1" source="YktuZhn3uDdsjPysNcHp-494">
          <mxGeometry relative="1" as="geometry">
            <mxPoint x="610" y="340" as="targetPoint" />
          </mxGeometry>
        </mxCell>
        <mxCell id="YktuZhn3uDdsjPysNcHp-496" style="edgeStyle=orthogonalEdgeStyle;rounded=0;orthogonalLoop=1;jettySize=auto;html=1;exitX=0;exitY=0.5;exitDx=0;exitDy=0;entryX=1;entryY=0.5;entryDx=0;entryDy=0;" edge="1" parent="1" source="YktuZhn3uDdsjPysNcHp-494" target="YktuZhn3uDdsjPysNcHp-296">
          <mxGeometry relative="1" as="geometry">
            <Array as="points">
              <mxPoint x="545" y="560" />
              <mxPoint x="545" y="805" />
            </Array>
          </mxGeometry>
        </mxCell>
        <mxCell id="YktuZhn3uDdsjPysNcHp-497" style="edgeStyle=orthogonalEdgeStyle;rounded=0;orthogonalLoop=1;jettySize=auto;html=1;exitX=0.5;exitY=1;exitDx=0;exitDy=0;entryX=0;entryY=0.5;entryDx=0;entryDy=0;" edge="1" parent="1" source="YktuZhn3uDdsjPysNcHp-494" target="YktuZhn3uDdsjPysNcHp-344">
          <mxGeometry relative="1" as="geometry" />
        </mxCell>
        <mxCell id="YktuZhn3uDdsjPysNcHp-494" value="Author" style="shape=rhombus;perimeter=rhombusPerimeter;whiteSpace=wrap;html=1;align=center;" vertex="1" parent="1">
          <mxGeometry x="590" y="520" width="120" height="80" as="geometry" />
        </mxCell>
        <mxCell id="YktuZhn3uDdsjPysNcHp-499" style="edgeStyle=orthogonalEdgeStyle;rounded=0;orthogonalLoop=1;jettySize=auto;html=1;exitX=1;exitY=0.5;exitDx=0;exitDy=0;entryX=0.156;entryY=-0.009;entryDx=0;entryDy=0;entryPerimeter=0;" edge="1" parent="1" source="YktuZhn3uDdsjPysNcHp-494" target="YktuZhn3uDdsjPysNcHp-381">
          <mxGeometry relative="1" as="geometry" />
        </mxCell>
        <mxCell id="YktuZhn3uDdsjPysNcHp-501" style="edgeStyle=orthogonalEdgeStyle;rounded=0;orthogonalLoop=1;jettySize=auto;html=1;exitX=1;exitY=0.5;exitDx=0;exitDy=0;entryX=0;entryY=0.5;entryDx=0;entryDy=0;" edge="1" parent="1" source="YktuZhn3uDdsjPysNcHp-500" target="YktuZhn3uDdsjPysNcHp-353">
          <mxGeometry relative="1" as="geometry" />
        </mxCell>
        <mxCell id="YktuZhn3uDdsjPysNcHp-502" style="edgeStyle=orthogonalEdgeStyle;rounded=0;orthogonalLoop=1;jettySize=auto;html=1;exitX=0;exitY=0.5;exitDx=0;exitDy=0;" edge="1" parent="1" source="YktuZhn3uDdsjPysNcHp-500">
          <mxGeometry relative="1" as="geometry">
            <mxPoint x="509.9999999999998" y="895.0588235294117" as="targetPoint" />
          </mxGeometry>
        </mxCell>
        <mxCell id="YktuZhn3uDdsjPysNcHp-500" value="Photo" style="shape=rhombus;perimeter=rhombusPerimeter;whiteSpace=wrap;html=1;align=center;" vertex="1" parent="1">
          <mxGeometry x="540" y="870" width="80" height="50" as="geometry" />
        </mxCell>
        <mxCell id="YktuZhn3uDdsjPysNcHp-503" value="Like and Emojis" style="shape=table;startSize=30;container=1;collapsible=1;childLayout=tableLayout;fixedRows=1;rowLines=0;fontStyle=1;align=center;resizeLast=1;html=1;whiteSpace=wrap;fillColor=#d5e8d4;strokeColor=#82b366;" vertex="1" parent="1">
          <mxGeometry x="101" y="1060" width="239" height="140" as="geometry" />
        </mxCell>
        <mxCell id="YktuZhn3uDdsjPysNcHp-504" value="" style="shape=tableRow;horizontal=0;startSize=0;swimlaneHead=0;swimlaneBody=0;fillColor=none;collapsible=0;dropTarget=0;points=[[0,0.5],[1,0.5]];portConstraint=eastwest;top=0;left=0;right=0;bottom=0;html=1;" vertex="1" parent="YktuZhn3uDdsjPysNcHp-503">
          <mxGeometry y="30" width="239" height="30" as="geometry" />
        </mxCell>
        <mxCell id="YktuZhn3uDdsjPysNcHp-505" value="FK1" style="shape=partialRectangle;connectable=0;fillColor=#dae8fc;top=0;left=0;bottom=0;right=0;fontStyle=1;overflow=hidden;html=1;whiteSpace=wrap;strokeColor=#6c8ebf;" vertex="1" parent="YktuZhn3uDdsjPysNcHp-504">
          <mxGeometry width="60" height="30" as="geometry">
            <mxRectangle width="60" height="30" as="alternateBounds" />
          </mxGeometry>
        </mxCell>
        <mxCell id="YktuZhn3uDdsjPysNcHp-506" value="Person (Liker)" style="shape=partialRectangle;connectable=0;fillColor=#dae8fc;top=0;left=0;bottom=0;right=0;align=left;spacingLeft=6;fontStyle=5;overflow=hidden;html=1;whiteSpace=wrap;strokeColor=#6c8ebf;" vertex="1" parent="YktuZhn3uDdsjPysNcHp-504">
          <mxGeometry x="60" width="179" height="30" as="geometry">
            <mxRectangle width="179" height="30" as="alternateBounds" />
          </mxGeometry>
        </mxCell>
        <mxCell id="YktuZhn3uDdsjPysNcHp-507" value="" style="shape=tableRow;horizontal=0;startSize=0;swimlaneHead=0;swimlaneBody=0;fillColor=none;collapsible=0;dropTarget=0;points=[[0,0.5],[1,0.5]];portConstraint=eastwest;top=0;left=0;right=0;bottom=1;html=1;" vertex="1" parent="YktuZhn3uDdsjPysNcHp-503">
          <mxGeometry y="60" width="239" height="40" as="geometry" />
        </mxCell>
        <mxCell id="YktuZhn3uDdsjPysNcHp-508" value="FK2" style="shape=partialRectangle;connectable=0;fillColor=#dae8fc;top=0;left=0;bottom=0;right=0;fontStyle=1;overflow=hidden;html=1;whiteSpace=wrap;strokeColor=#6c8ebf;" vertex="1" parent="YktuZhn3uDdsjPysNcHp-507">
          <mxGeometry width="60" height="40" as="geometry">
            <mxRectangle width="60" height="40" as="alternateBounds" />
          </mxGeometry>
        </mxCell>
        <mxCell id="YktuZhn3uDdsjPysNcHp-509" value="SourceId (Photo/video/post/comment)&lt;div&gt;&lt;br&gt;&lt;/div&gt;&lt;div&gt;&lt;br&gt;&lt;/div&gt;" style="shape=partialRectangle;connectable=0;fillColor=#dae8fc;top=0;left=0;bottom=0;right=0;align=left;spacingLeft=6;fontStyle=5;overflow=hidden;html=1;whiteSpace=wrap;strokeColor=#6c8ebf;" vertex="1" parent="YktuZhn3uDdsjPysNcHp-507">
          <mxGeometry x="60" width="179" height="40" as="geometry">
            <mxRectangle width="179" height="40" as="alternateBounds" />
          </mxGeometry>
        </mxCell>
        <mxCell id="YktuZhn3uDdsjPysNcHp-510" value="" style="shape=tableRow;horizontal=0;startSize=0;swimlaneHead=0;swimlaneBody=0;fillColor=none;collapsible=0;dropTarget=0;points=[[0,0.5],[1,0.5]];portConstraint=eastwest;top=0;left=0;right=0;bottom=0;html=1;" vertex="1" parent="YktuZhn3uDdsjPysNcHp-503">
          <mxGeometry y="100" width="239" height="40" as="geometry" />
        </mxCell>
        <mxCell id="YktuZhn3uDdsjPysNcHp-511" value="" style="shape=partialRectangle;connectable=0;fillColor=none;top=0;left=0;bottom=0;right=0;editable=1;overflow=hidden;html=1;whiteSpace=wrap;" vertex="1" parent="YktuZhn3uDdsjPysNcHp-510">
          <mxGeometry width="60" height="40" as="geometry">
            <mxRectangle width="60" height="40" as="alternateBounds" />
          </mxGeometry>
        </mxCell>
        <mxCell id="YktuZhn3uDdsjPysNcHp-512" value="&lt;font style=&quot;font-size: 13px;&quot;&gt;Type (like/dislike/love/haha/angry&lt;/font&gt;" style="shape=partialRectangle;connectable=0;fillColor=none;top=0;left=0;bottom=0;right=0;align=left;spacingLeft=6;overflow=hidden;html=1;whiteSpace=wrap;" vertex="1" parent="YktuZhn3uDdsjPysNcHp-510">
          <mxGeometry x="60" width="179" height="40" as="geometry">
            <mxRectangle width="179" height="40" as="alternateBounds" />
          </mxGeometry>
        </mxCell>
        <mxCell id="YktuZhn3uDdsjPysNcHp-523" value="Comment" style="shape=table;startSize=30;container=1;collapsible=1;childLayout=tableLayout;fixedRows=1;rowLines=0;fontStyle=1;align=center;resizeLast=1;html=1;whiteSpace=wrap;fillColor=#d5e8d4;strokeColor=#82b366;" vertex="1" parent="1">
          <mxGeometry x="450" y="1170" width="210" height="300" as="geometry" />
        </mxCell>
        <mxCell id="YktuZhn3uDdsjPysNcHp-524" value="" style="shape=tableRow;horizontal=0;startSize=0;swimlaneHead=0;swimlaneBody=0;fillColor=none;collapsible=0;dropTarget=0;points=[[0,0.5],[1,0.5]];portConstraint=eastwest;top=0;left=0;right=0;bottom=0;html=1;" vertex="1" parent="YktuZhn3uDdsjPysNcHp-523">
          <mxGeometry y="30" width="210" height="30" as="geometry" />
        </mxCell>
        <mxCell id="YktuZhn3uDdsjPysNcHp-525" value="PK" style="shape=partialRectangle;connectable=0;fillColor=#ffe6cc;top=0;left=0;bottom=0;right=0;fontStyle=1;overflow=hidden;html=1;whiteSpace=wrap;strokeColor=#d79b00;" vertex="1" parent="YktuZhn3uDdsjPysNcHp-524">
          <mxGeometry width="60" height="30" as="geometry">
            <mxRectangle width="60" height="30" as="alternateBounds" />
          </mxGeometry>
        </mxCell>
        <mxCell id="YktuZhn3uDdsjPysNcHp-526" value="ID" style="shape=partialRectangle;connectable=0;fillColor=#ffe6cc;top=0;left=0;bottom=0;right=0;align=left;spacingLeft=6;fontStyle=5;overflow=hidden;html=1;whiteSpace=wrap;strokeColor=#d79b00;" vertex="1" parent="YktuZhn3uDdsjPysNcHp-524">
          <mxGeometry x="60" width="150" height="30" as="geometry">
            <mxRectangle width="150" height="30" as="alternateBounds" />
          </mxGeometry>
        </mxCell>
        <mxCell id="YktuZhn3uDdsjPysNcHp-527" value="" style="shape=tableRow;horizontal=0;startSize=0;swimlaneHead=0;swimlaneBody=0;fillColor=none;collapsible=0;dropTarget=0;points=[[0,0.5],[1,0.5]];portConstraint=eastwest;top=0;left=0;right=0;bottom=1;html=1;" vertex="1" parent="YktuZhn3uDdsjPysNcHp-523">
          <mxGeometry y="60" width="210" height="30" as="geometry" />
        </mxCell>
        <mxCell id="YktuZhn3uDdsjPysNcHp-528" value="FK" style="shape=partialRectangle;connectable=0;fillColor=#dae8fc;top=0;left=0;bottom=0;right=0;fontStyle=1;overflow=hidden;html=1;whiteSpace=wrap;strokeColor=#6c8ebf;" vertex="1" parent="YktuZhn3uDdsjPysNcHp-527">
          <mxGeometry width="60" height="30" as="geometry">
            <mxRectangle width="60" height="30" as="alternateBounds" />
          </mxGeometry>
        </mxCell>
        <mxCell id="YktuZhn3uDdsjPysNcHp-529" value="Person (Commenter)" style="shape=partialRectangle;connectable=0;fillColor=#dae8fc;top=0;left=0;bottom=0;right=0;align=left;spacingLeft=6;fontStyle=5;overflow=hidden;html=1;whiteSpace=wrap;strokeColor=#6c8ebf;" vertex="1" parent="YktuZhn3uDdsjPysNcHp-527">
          <mxGeometry x="60" width="150" height="30" as="geometry">
            <mxRectangle width="150" height="30" as="alternateBounds" />
          </mxGeometry>
        </mxCell>
        <mxCell id="YktuZhn3uDdsjPysNcHp-533" value="" style="shape=tableRow;horizontal=0;startSize=0;swimlaneHead=0;swimlaneBody=0;fillColor=none;collapsible=0;dropTarget=0;points=[[0,0.5],[1,0.5]];portConstraint=eastwest;top=0;left=0;right=0;bottom=1;html=1;" vertex="1" parent="YktuZhn3uDdsjPysNcHp-523">
          <mxGeometry y="90" width="210" height="42" as="geometry" />
        </mxCell>
        <mxCell id="YktuZhn3uDdsjPysNcHp-534" value="FK" style="shape=partialRectangle;connectable=0;fillColor=#dae8fc;top=0;left=0;bottom=0;right=0;fontStyle=1;overflow=hidden;html=1;whiteSpace=wrap;strokeColor=#6c8ebf;" vertex="1" parent="YktuZhn3uDdsjPysNcHp-533">
          <mxGeometry width="60" height="42" as="geometry">
            <mxRectangle width="60" height="42" as="alternateBounds" />
          </mxGeometry>
        </mxCell>
        <mxCell id="YktuZhn3uDdsjPysNcHp-535" value="SourceId (Photo/Video&lt;div&gt;&lt;span style=&quot;white-space: pre;&quot;&gt;&#x9;&lt;/span&gt;Post)&lt;br&gt;&lt;/div&gt;" style="shape=partialRectangle;connectable=0;fillColor=#dae8fc;top=0;left=0;bottom=0;right=0;align=left;spacingLeft=6;fontStyle=1;overflow=hidden;html=1;whiteSpace=wrap;strokeColor=#6c8ebf;" vertex="1" parent="YktuZhn3uDdsjPysNcHp-533">
          <mxGeometry x="60" width="150" height="42" as="geometry">
            <mxRectangle width="150" height="42" as="alternateBounds" />
          </mxGeometry>
        </mxCell>
        <mxCell id="YktuZhn3uDdsjPysNcHp-536" value="" style="shape=tableRow;horizontal=0;startSize=0;swimlaneHead=0;swimlaneBody=0;fillColor=none;collapsible=0;dropTarget=0;points=[[0,0.5],[1,0.5]];portConstraint=eastwest;top=0;left=0;right=0;bottom=1;html=1;" vertex="1" parent="YktuZhn3uDdsjPysNcHp-523">
          <mxGeometry y="132" width="210" height="42" as="geometry" />
        </mxCell>
        <mxCell id="YktuZhn3uDdsjPysNcHp-537" value="" style="shape=partialRectangle;connectable=0;fillColor=#f5f5f5;top=0;left=0;bottom=0;right=0;fontStyle=1;overflow=hidden;html=1;whiteSpace=wrap;strokeColor=#666666;fontColor=#333333;" vertex="1" parent="YktuZhn3uDdsjPysNcHp-536">
          <mxGeometry width="60" height="42" as="geometry">
            <mxRectangle width="60" height="42" as="alternateBounds" />
          </mxGeometry>
        </mxCell>
        <mxCell id="YktuZhn3uDdsjPysNcHp-538" value="&lt;span style=&quot;font-weight: normal;&quot;&gt;Instance&amp;nbsp;(Replay)&lt;/span&gt;" style="shape=partialRectangle;connectable=0;fillColor=#f5f5f5;top=0;left=0;bottom=0;right=0;align=left;spacingLeft=6;fontStyle=1;overflow=hidden;html=1;whiteSpace=wrap;strokeColor=#666666;fontColor=#333333;" vertex="1" parent="YktuZhn3uDdsjPysNcHp-536">
          <mxGeometry x="60" width="150" height="42" as="geometry">
            <mxRectangle width="150" height="42" as="alternateBounds" />
          </mxGeometry>
        </mxCell>
        <mxCell id="YktuZhn3uDdsjPysNcHp-539" value="" style="shape=tableRow;horizontal=0;startSize=0;swimlaneHead=0;swimlaneBody=0;fillColor=none;collapsible=0;dropTarget=0;points=[[0,0.5],[1,0.5]];portConstraint=eastwest;top=0;left=0;right=0;bottom=1;html=1;" vertex="1" parent="YktuZhn3uDdsjPysNcHp-523">
          <mxGeometry y="174" width="210" height="42" as="geometry" />
        </mxCell>
        <mxCell id="YktuZhn3uDdsjPysNcHp-540" value="" style="shape=partialRectangle;connectable=0;fillColor=#f5f5f5;top=0;left=0;bottom=0;right=0;fontStyle=1;overflow=hidden;html=1;whiteSpace=wrap;strokeColor=#666666;fontColor=#333333;" vertex="1" parent="YktuZhn3uDdsjPysNcHp-539">
          <mxGeometry width="60" height="42" as="geometry">
            <mxRectangle width="60" height="42" as="alternateBounds" />
          </mxGeometry>
        </mxCell>
        <mxCell id="YktuZhn3uDdsjPysNcHp-541" value="&lt;span style=&quot;font-weight: normal;&quot;&gt;Text&lt;/span&gt;" style="shape=partialRectangle;connectable=0;fillColor=#f5f5f5;top=0;left=0;bottom=0;right=0;align=left;spacingLeft=6;fontStyle=1;overflow=hidden;html=1;whiteSpace=wrap;strokeColor=#666666;fontColor=#333333;" vertex="1" parent="YktuZhn3uDdsjPysNcHp-539">
          <mxGeometry x="60" width="150" height="42" as="geometry">
            <mxRectangle width="150" height="42" as="alternateBounds" />
          </mxGeometry>
        </mxCell>
        <mxCell id="YktuZhn3uDdsjPysNcHp-590" value="" style="shape=tableRow;horizontal=0;startSize=0;swimlaneHead=0;swimlaneBody=0;fillColor=none;collapsible=0;dropTarget=0;points=[[0,0.5],[1,0.5]];portConstraint=eastwest;top=0;left=0;right=0;bottom=1;html=1;" vertex="1" parent="YktuZhn3uDdsjPysNcHp-523">
          <mxGeometry y="216" width="210" height="42" as="geometry" />
        </mxCell>
        <mxCell id="YktuZhn3uDdsjPysNcHp-591" value="" style="shape=partialRectangle;connectable=0;fillColor=#f5f5f5;top=0;left=0;bottom=0;right=0;fontStyle=1;overflow=hidden;html=1;whiteSpace=wrap;strokeColor=#666666;fontColor=#333333;" vertex="1" parent="YktuZhn3uDdsjPysNcHp-590">
          <mxGeometry width="60" height="42" as="geometry">
            <mxRectangle width="60" height="42" as="alternateBounds" />
          </mxGeometry>
        </mxCell>
        <mxCell id="YktuZhn3uDdsjPysNcHp-592" value="&lt;span style=&quot;font-weight: normal;&quot;&gt;Image&lt;/span&gt;" style="shape=partialRectangle;connectable=0;fillColor=#f5f5f5;top=0;left=0;bottom=0;right=0;align=left;spacingLeft=6;fontStyle=1;overflow=hidden;html=1;whiteSpace=wrap;strokeColor=#666666;fontColor=#333333;" vertex="1" parent="YktuZhn3uDdsjPysNcHp-590">
          <mxGeometry x="60" width="150" height="42" as="geometry">
            <mxRectangle width="150" height="42" as="alternateBounds" />
          </mxGeometry>
        </mxCell>
        <mxCell id="YktuZhn3uDdsjPysNcHp-593" value="" style="shape=tableRow;horizontal=0;startSize=0;swimlaneHead=0;swimlaneBody=0;fillColor=none;collapsible=0;dropTarget=0;points=[[0,0.5],[1,0.5]];portConstraint=eastwest;top=0;left=0;right=0;bottom=1;html=1;" vertex="1" parent="YktuZhn3uDdsjPysNcHp-523">
          <mxGeometry y="258" width="210" height="42" as="geometry" />
        </mxCell>
        <mxCell id="YktuZhn3uDdsjPysNcHp-594" value="" style="shape=partialRectangle;connectable=0;fillColor=#f5f5f5;top=0;left=0;bottom=0;right=0;fontStyle=1;overflow=hidden;html=1;whiteSpace=wrap;strokeColor=#666666;fontColor=#333333;" vertex="1" parent="YktuZhn3uDdsjPysNcHp-593">
          <mxGeometry width="60" height="42" as="geometry">
            <mxRectangle width="60" height="42" as="alternateBounds" />
          </mxGeometry>
        </mxCell>
        <mxCell id="YktuZhn3uDdsjPysNcHp-595" value="Imoji" style="shape=partialRectangle;connectable=0;fillColor=#f5f5f5;top=0;left=0;bottom=0;right=0;align=left;spacingLeft=6;fontStyle=0;overflow=hidden;html=1;whiteSpace=wrap;strokeColor=#666666;fontColor=#333333;" vertex="1" parent="YktuZhn3uDdsjPysNcHp-593">
          <mxGeometry x="60" width="150" height="42" as="geometry">
            <mxRectangle width="150" height="42" as="alternateBounds" />
          </mxGeometry>
        </mxCell>
        <mxCell id="YktuZhn3uDdsjPysNcHp-598" style="edgeStyle=orthogonalEdgeStyle;rounded=0;orthogonalLoop=1;jettySize=auto;html=1;exitX=0.5;exitY=1;exitDx=0;exitDy=0;" edge="1" parent="1" source="YktuZhn3uDdsjPysNcHp-596" target="YktuZhn3uDdsjPysNcHp-593">
          <mxGeometry relative="1" as="geometry" />
        </mxCell>
        <mxCell id="YktuZhn3uDdsjPysNcHp-599" style="edgeStyle=orthogonalEdgeStyle;rounded=0;orthogonalLoop=1;jettySize=auto;html=1;exitX=0.5;exitY=0;exitDx=0;exitDy=0;" edge="1" parent="1" source="YktuZhn3uDdsjPysNcHp-596">
          <mxGeometry relative="1" as="geometry">
            <mxPoint x="210" y="1210" as="targetPoint" />
          </mxGeometry>
        </mxCell>
        <mxCell id="YktuZhn3uDdsjPysNcHp-596" value="Imoji" style="shape=rhombus;perimeter=rhombusPerimeter;whiteSpace=wrap;html=1;align=center;" vertex="1" parent="1">
          <mxGeometry x="230" y="1260" width="80" height="60" as="geometry" />
        </mxCell>
        <mxCell id="YktuZhn3uDdsjPysNcHp-600" value="Story" style="shape=table;startSize=30;container=1;collapsible=1;childLayout=tableLayout;fixedRows=1;rowLines=0;fontStyle=1;align=center;resizeLast=1;html=1;whiteSpace=wrap;fillColor=#d5e8d4;strokeColor=#82b366;" vertex="1" parent="1">
          <mxGeometry x="902" y="1310" width="210" height="258" as="geometry" />
        </mxCell>
        <mxCell id="YktuZhn3uDdsjPysNcHp-601" value="" style="shape=tableRow;horizontal=0;startSize=0;swimlaneHead=0;swimlaneBody=0;fillColor=none;collapsible=0;dropTarget=0;points=[[0,0.5],[1,0.5]];portConstraint=eastwest;top=0;left=0;right=0;bottom=0;html=1;" vertex="1" parent="YktuZhn3uDdsjPysNcHp-600">
          <mxGeometry y="30" width="210" height="30" as="geometry" />
        </mxCell>
        <mxCell id="YktuZhn3uDdsjPysNcHp-602" value="PK" style="shape=partialRectangle;connectable=0;fillColor=#ffe6cc;top=0;left=0;bottom=0;right=0;fontStyle=1;overflow=hidden;html=1;whiteSpace=wrap;strokeColor=#d79b00;" vertex="1" parent="YktuZhn3uDdsjPysNcHp-601">
          <mxGeometry width="60" height="30" as="geometry">
            <mxRectangle width="60" height="30" as="alternateBounds" />
          </mxGeometry>
        </mxCell>
        <mxCell id="YktuZhn3uDdsjPysNcHp-603" value="ID" style="shape=partialRectangle;connectable=0;fillColor=#ffe6cc;top=0;left=0;bottom=0;right=0;align=left;spacingLeft=6;fontStyle=5;overflow=hidden;html=1;whiteSpace=wrap;strokeColor=#d79b00;" vertex="1" parent="YktuZhn3uDdsjPysNcHp-601">
          <mxGeometry x="60" width="150" height="30" as="geometry">
            <mxRectangle width="150" height="30" as="alternateBounds" />
          </mxGeometry>
        </mxCell>
        <mxCell id="YktuZhn3uDdsjPysNcHp-604" value="" style="shape=tableRow;horizontal=0;startSize=0;swimlaneHead=0;swimlaneBody=0;fillColor=none;collapsible=0;dropTarget=0;points=[[0,0.5],[1,0.5]];portConstraint=eastwest;top=0;left=0;right=0;bottom=1;html=1;" vertex="1" parent="YktuZhn3uDdsjPysNcHp-600">
          <mxGeometry y="60" width="210" height="30" as="geometry" />
        </mxCell>
        <mxCell id="YktuZhn3uDdsjPysNcHp-605" value="FK" style="shape=partialRectangle;connectable=0;fillColor=#dae8fc;top=0;left=0;bottom=0;right=0;fontStyle=1;overflow=hidden;html=1;whiteSpace=wrap;strokeColor=#6c8ebf;" vertex="1" parent="YktuZhn3uDdsjPysNcHp-604">
          <mxGeometry width="60" height="30" as="geometry">
            <mxRectangle width="60" height="30" as="alternateBounds" />
          </mxGeometry>
        </mxCell>
        <mxCell id="YktuZhn3uDdsjPysNcHp-606" value="Person (Author)" style="shape=partialRectangle;connectable=0;fillColor=#dae8fc;top=0;left=0;bottom=0;right=0;align=left;spacingLeft=6;fontStyle=5;overflow=hidden;html=1;whiteSpace=wrap;strokeColor=#6c8ebf;" vertex="1" parent="YktuZhn3uDdsjPysNcHp-604">
          <mxGeometry x="60" width="150" height="30" as="geometry">
            <mxRectangle width="150" height="30" as="alternateBounds" />
          </mxGeometry>
        </mxCell>
        <mxCell id="YktuZhn3uDdsjPysNcHp-613" value="" style="shape=tableRow;horizontal=0;startSize=0;swimlaneHead=0;swimlaneBody=0;fillColor=none;collapsible=0;dropTarget=0;points=[[0,0.5],[1,0.5]];portConstraint=eastwest;top=0;left=0;right=0;bottom=1;html=1;" vertex="1" parent="YktuZhn3uDdsjPysNcHp-600">
          <mxGeometry y="90" width="210" height="42" as="geometry" />
        </mxCell>
        <mxCell id="YktuZhn3uDdsjPysNcHp-614" value="" style="shape=partialRectangle;connectable=0;fillColor=#f5f5f5;top=0;left=0;bottom=0;right=0;fontStyle=1;overflow=hidden;html=1;whiteSpace=wrap;strokeColor=#666666;fontColor=#333333;" vertex="1" parent="YktuZhn3uDdsjPysNcHp-613">
          <mxGeometry width="60" height="42" as="geometry">
            <mxRectangle width="60" height="42" as="alternateBounds" />
          </mxGeometry>
        </mxCell>
        <mxCell id="YktuZhn3uDdsjPysNcHp-615" value="&lt;span style=&quot;font-weight: normal;&quot;&gt;Text&lt;/span&gt;" style="shape=partialRectangle;connectable=0;fillColor=#f5f5f5;top=0;left=0;bottom=0;right=0;align=left;spacingLeft=6;fontStyle=1;overflow=hidden;html=1;whiteSpace=wrap;strokeColor=#666666;fontColor=#333333;" vertex="1" parent="YktuZhn3uDdsjPysNcHp-613">
          <mxGeometry x="60" width="150" height="42" as="geometry">
            <mxRectangle width="150" height="42" as="alternateBounds" />
          </mxGeometry>
        </mxCell>
        <mxCell id="YktuZhn3uDdsjPysNcHp-616" value="" style="shape=tableRow;horizontal=0;startSize=0;swimlaneHead=0;swimlaneBody=0;fillColor=none;collapsible=0;dropTarget=0;points=[[0,0.5],[1,0.5]];portConstraint=eastwest;top=0;left=0;right=0;bottom=1;html=1;" vertex="1" parent="YktuZhn3uDdsjPysNcHp-600">
          <mxGeometry y="132" width="210" height="42" as="geometry" />
        </mxCell>
        <mxCell id="YktuZhn3uDdsjPysNcHp-617" value="" style="shape=partialRectangle;connectable=0;fillColor=#f5f5f5;top=0;left=0;bottom=0;right=0;fontStyle=1;overflow=hidden;html=1;whiteSpace=wrap;strokeColor=#666666;fontColor=#333333;" vertex="1" parent="YktuZhn3uDdsjPysNcHp-616">
          <mxGeometry width="60" height="42" as="geometry">
            <mxRectangle width="60" height="42" as="alternateBounds" />
          </mxGeometry>
        </mxCell>
        <mxCell id="YktuZhn3uDdsjPysNcHp-618" value="&lt;span style=&quot;font-weight: normal;&quot;&gt;Image&lt;/span&gt;" style="shape=partialRectangle;connectable=0;fillColor=#f5f5f5;top=0;left=0;bottom=0;right=0;align=left;spacingLeft=6;fontStyle=1;overflow=hidden;html=1;whiteSpace=wrap;strokeColor=#666666;fontColor=#333333;" vertex="1" parent="YktuZhn3uDdsjPysNcHp-616">
          <mxGeometry x="60" width="150" height="42" as="geometry">
            <mxRectangle width="150" height="42" as="alternateBounds" />
          </mxGeometry>
        </mxCell>
        <mxCell id="YktuZhn3uDdsjPysNcHp-619" value="" style="shape=tableRow;horizontal=0;startSize=0;swimlaneHead=0;swimlaneBody=0;fillColor=none;collapsible=0;dropTarget=0;points=[[0,0.5],[1,0.5]];portConstraint=eastwest;top=0;left=0;right=0;bottom=1;html=1;" vertex="1" parent="YktuZhn3uDdsjPysNcHp-600">
          <mxGeometry y="174" width="210" height="42" as="geometry" />
        </mxCell>
        <mxCell id="YktuZhn3uDdsjPysNcHp-620" value="" style="shape=partialRectangle;connectable=0;fillColor=#f5f5f5;top=0;left=0;bottom=0;right=0;fontStyle=1;overflow=hidden;html=1;whiteSpace=wrap;strokeColor=#666666;fontColor=#333333;" vertex="1" parent="YktuZhn3uDdsjPysNcHp-619">
          <mxGeometry width="60" height="42" as="geometry">
            <mxRectangle width="60" height="42" as="alternateBounds" />
          </mxGeometry>
        </mxCell>
        <mxCell id="YktuZhn3uDdsjPysNcHp-621" value="Video" style="shape=partialRectangle;connectable=0;fillColor=#f5f5f5;top=0;left=0;bottom=0;right=0;align=left;spacingLeft=6;fontStyle=0;overflow=hidden;html=1;whiteSpace=wrap;strokeColor=#666666;fontColor=#333333;" vertex="1" parent="YktuZhn3uDdsjPysNcHp-619">
          <mxGeometry x="60" width="150" height="42" as="geometry">
            <mxRectangle width="150" height="42" as="alternateBounds" />
          </mxGeometry>
        </mxCell>
        <mxCell id="YktuZhn3uDdsjPysNcHp-622" value="" style="shape=tableRow;horizontal=0;startSize=0;swimlaneHead=0;swimlaneBody=0;fillColor=none;collapsible=0;dropTarget=0;points=[[0,0.5],[1,0.5]];portConstraint=eastwest;top=0;left=0;right=0;bottom=1;html=1;" vertex="1" parent="YktuZhn3uDdsjPysNcHp-600">
          <mxGeometry y="216" width="210" height="42" as="geometry" />
        </mxCell>
        <mxCell id="YktuZhn3uDdsjPysNcHp-623" value="" style="shape=partialRectangle;connectable=0;fillColor=#f5f5f5;top=0;left=0;bottom=0;right=0;fontStyle=1;overflow=hidden;html=1;whiteSpace=wrap;strokeColor=#666666;fontColor=#333333;" vertex="1" parent="YktuZhn3uDdsjPysNcHp-622">
          <mxGeometry width="60" height="42" as="geometry">
            <mxRectangle width="60" height="42" as="alternateBounds" />
          </mxGeometry>
        </mxCell>
        <mxCell id="YktuZhn3uDdsjPysNcHp-624" value="&lt;span style=&quot;font-weight: 400;&quot;&gt;Viewer&lt;/span&gt;" style="shape=partialRectangle;connectable=0;fillColor=#f5f5f5;top=0;left=0;bottom=0;right=0;align=left;spacingLeft=6;fontStyle=1;overflow=hidden;html=1;whiteSpace=wrap;strokeColor=#666666;fontColor=#333333;" vertex="1" parent="YktuZhn3uDdsjPysNcHp-622">
          <mxGeometry x="60" width="150" height="42" as="geometry">
            <mxRectangle width="150" height="42" as="alternateBounds" />
          </mxGeometry>
        </mxCell>
        <mxCell id="YktuZhn3uDdsjPysNcHp-625" value="Viewer" style="shape=table;startSize=30;container=1;collapsible=1;childLayout=tableLayout;fixedRows=1;rowLines=0;fontStyle=1;align=center;resizeLast=1;html=1;whiteSpace=wrap;fillColor=#d5e8d4;strokeColor=#82b366;" vertex="1" parent="1">
          <mxGeometry x="1330" y="1310" width="210" height="132" as="geometry" />
        </mxCell>
        <mxCell id="YktuZhn3uDdsjPysNcHp-626" value="" style="shape=tableRow;horizontal=0;startSize=0;swimlaneHead=0;swimlaneBody=0;fillColor=none;collapsible=0;dropTarget=0;points=[[0,0.5],[1,0.5]];portConstraint=eastwest;top=0;left=0;right=0;bottom=0;html=1;" vertex="1" parent="YktuZhn3uDdsjPysNcHp-625">
          <mxGeometry y="30" width="210" height="30" as="geometry" />
        </mxCell>
        <mxCell id="YktuZhn3uDdsjPysNcHp-627" value="FK" style="shape=partialRectangle;connectable=0;fillColor=#dae8fc;top=0;left=0;bottom=0;right=0;fontStyle=1;overflow=hidden;html=1;whiteSpace=wrap;strokeColor=#6c8ebf;" vertex="1" parent="YktuZhn3uDdsjPysNcHp-626">
          <mxGeometry width="60" height="30" as="geometry">
            <mxRectangle width="60" height="30" as="alternateBounds" />
          </mxGeometry>
        </mxCell>
        <mxCell id="YktuZhn3uDdsjPysNcHp-628" value="StoryId" style="shape=partialRectangle;connectable=0;fillColor=#dae8fc;top=0;left=0;bottom=0;right=0;align=left;spacingLeft=6;fontStyle=5;overflow=hidden;html=1;whiteSpace=wrap;strokeColor=#6c8ebf;" vertex="1" parent="YktuZhn3uDdsjPysNcHp-626">
          <mxGeometry x="60" width="150" height="30" as="geometry">
            <mxRectangle width="150" height="30" as="alternateBounds" />
          </mxGeometry>
        </mxCell>
        <mxCell id="YktuZhn3uDdsjPysNcHp-629" value="" style="shape=tableRow;horizontal=0;startSize=0;swimlaneHead=0;swimlaneBody=0;fillColor=none;collapsible=0;dropTarget=0;points=[[0,0.5],[1,0.5]];portConstraint=eastwest;top=0;left=0;right=0;bottom=1;html=1;" vertex="1" parent="YktuZhn3uDdsjPysNcHp-625">
          <mxGeometry y="60" width="210" height="30" as="geometry" />
        </mxCell>
        <mxCell id="YktuZhn3uDdsjPysNcHp-630" value="FK" style="shape=partialRectangle;connectable=0;fillColor=#dae8fc;top=0;left=0;bottom=0;right=0;fontStyle=1;overflow=hidden;html=1;whiteSpace=wrap;strokeColor=#6c8ebf;" vertex="1" parent="YktuZhn3uDdsjPysNcHp-629">
          <mxGeometry width="60" height="30" as="geometry">
            <mxRectangle width="60" height="30" as="alternateBounds" />
          </mxGeometry>
        </mxCell>
        <mxCell id="YktuZhn3uDdsjPysNcHp-631" value="Person (Viewer)" style="shape=partialRectangle;connectable=0;fillColor=#dae8fc;top=0;left=0;bottom=0;right=0;align=left;spacingLeft=6;fontStyle=5;overflow=hidden;html=1;whiteSpace=wrap;strokeColor=#6c8ebf;" vertex="1" parent="YktuZhn3uDdsjPysNcHp-629">
          <mxGeometry x="60" width="150" height="30" as="geometry">
            <mxRectangle width="150" height="30" as="alternateBounds" />
          </mxGeometry>
        </mxCell>
        <mxCell id="YktuZhn3uDdsjPysNcHp-641" value="" style="shape=tableRow;horizontal=0;startSize=0;swimlaneHead=0;swimlaneBody=0;fillColor=none;collapsible=0;dropTarget=0;points=[[0,0.5],[1,0.5]];portConstraint=eastwest;top=0;left=0;right=0;bottom=1;html=1;" vertex="1" parent="YktuZhn3uDdsjPysNcHp-625">
          <mxGeometry y="90" width="210" height="42" as="geometry" />
        </mxCell>
        <mxCell id="YktuZhn3uDdsjPysNcHp-642" value="" style="shape=partialRectangle;connectable=0;fillColor=#f5f5f5;top=0;left=0;bottom=0;right=0;fontStyle=1;overflow=hidden;html=1;whiteSpace=wrap;strokeColor=#666666;fontColor=#333333;" vertex="1" parent="YktuZhn3uDdsjPysNcHp-641">
          <mxGeometry width="60" height="42" as="geometry">
            <mxRectangle width="60" height="42" as="alternateBounds" />
          </mxGeometry>
        </mxCell>
        <mxCell id="YktuZhn3uDdsjPysNcHp-643" value="&lt;span style=&quot;font-weight: normal;&quot;&gt;Replay&lt;/span&gt;" style="shape=partialRectangle;connectable=0;fillColor=#f5f5f5;top=0;left=0;bottom=0;right=0;align=left;spacingLeft=6;fontStyle=1;overflow=hidden;html=1;whiteSpace=wrap;strokeColor=#666666;fontColor=#333333;" vertex="1" parent="YktuZhn3uDdsjPysNcHp-641">
          <mxGeometry x="60" width="150" height="42" as="geometry">
            <mxRectangle width="150" height="42" as="alternateBounds" />
          </mxGeometry>
        </mxCell>
        <mxCell id="YktuZhn3uDdsjPysNcHp-644" value="Replay" style="shape=table;startSize=30;container=1;collapsible=1;childLayout=tableLayout;fixedRows=1;rowLines=0;fontStyle=1;align=center;resizeLast=1;html=1;whiteSpace=wrap;fillColor=#d5e8d4;strokeColor=#82b366;" vertex="1" parent="1">
          <mxGeometry x="1410" y="1620" width="210" height="300" as="geometry" />
        </mxCell>
        <mxCell id="YktuZhn3uDdsjPysNcHp-645" value="" style="shape=tableRow;horizontal=0;startSize=0;swimlaneHead=0;swimlaneBody=0;fillColor=none;collapsible=0;dropTarget=0;points=[[0,0.5],[1,0.5]];portConstraint=eastwest;top=0;left=0;right=0;bottom=0;html=1;" vertex="1" parent="YktuZhn3uDdsjPysNcHp-644">
          <mxGeometry y="30" width="210" height="30" as="geometry" />
        </mxCell>
        <mxCell id="YktuZhn3uDdsjPysNcHp-646" value="PK" style="shape=partialRectangle;connectable=0;fillColor=#ffe6cc;top=0;left=0;bottom=0;right=0;fontStyle=1;overflow=hidden;html=1;whiteSpace=wrap;strokeColor=#d79b00;" vertex="1" parent="YktuZhn3uDdsjPysNcHp-645">
          <mxGeometry width="60" height="30" as="geometry">
            <mxRectangle width="60" height="30" as="alternateBounds" />
          </mxGeometry>
        </mxCell>
        <mxCell id="YktuZhn3uDdsjPysNcHp-647" value="ID" style="shape=partialRectangle;connectable=0;fillColor=#ffe6cc;top=0;left=0;bottom=0;right=0;align=left;spacingLeft=6;fontStyle=5;overflow=hidden;html=1;whiteSpace=wrap;strokeColor=#d79b00;" vertex="1" parent="YktuZhn3uDdsjPysNcHp-645">
          <mxGeometry x="60" width="150" height="30" as="geometry">
            <mxRectangle width="150" height="30" as="alternateBounds" />
          </mxGeometry>
        </mxCell>
        <mxCell id="YktuZhn3uDdsjPysNcHp-648" value="" style="shape=tableRow;horizontal=0;startSize=0;swimlaneHead=0;swimlaneBody=0;fillColor=none;collapsible=0;dropTarget=0;points=[[0,0.5],[1,0.5]];portConstraint=eastwest;top=0;left=0;right=0;bottom=1;html=1;" vertex="1" parent="YktuZhn3uDdsjPysNcHp-644">
          <mxGeometry y="60" width="210" height="30" as="geometry" />
        </mxCell>
        <mxCell id="YktuZhn3uDdsjPysNcHp-649" value="FK" style="shape=partialRectangle;connectable=0;fillColor=#dae8fc;top=0;left=0;bottom=0;right=0;fontStyle=1;overflow=hidden;html=1;whiteSpace=wrap;strokeColor=#6c8ebf;" vertex="1" parent="YktuZhn3uDdsjPysNcHp-648">
          <mxGeometry width="60" height="30" as="geometry">
            <mxRectangle width="60" height="30" as="alternateBounds" />
          </mxGeometry>
        </mxCell>
        <mxCell id="YktuZhn3uDdsjPysNcHp-650" value="Person (Replayer)" style="shape=partialRectangle;connectable=0;fillColor=#dae8fc;top=0;left=0;bottom=0;right=0;align=left;spacingLeft=6;fontStyle=5;overflow=hidden;html=1;whiteSpace=wrap;strokeColor=#6c8ebf;" vertex="1" parent="YktuZhn3uDdsjPysNcHp-648">
          <mxGeometry x="60" width="150" height="30" as="geometry">
            <mxRectangle width="150" height="30" as="alternateBounds" />
          </mxGeometry>
        </mxCell>
        <mxCell id="YktuZhn3uDdsjPysNcHp-651" value="" style="shape=tableRow;horizontal=0;startSize=0;swimlaneHead=0;swimlaneBody=0;fillColor=none;collapsible=0;dropTarget=0;points=[[0,0.5],[1,0.5]];portConstraint=eastwest;top=0;left=0;right=0;bottom=1;html=1;" vertex="1" parent="YktuZhn3uDdsjPysNcHp-644">
          <mxGeometry y="90" width="210" height="42" as="geometry" />
        </mxCell>
        <mxCell id="YktuZhn3uDdsjPysNcHp-652" value="FK" style="shape=partialRectangle;connectable=0;fillColor=#dae8fc;top=0;left=0;bottom=0;right=0;fontStyle=1;overflow=hidden;html=1;whiteSpace=wrap;strokeColor=#6c8ebf;" vertex="1" parent="YktuZhn3uDdsjPysNcHp-651">
          <mxGeometry width="60" height="42" as="geometry">
            <mxRectangle width="60" height="42" as="alternateBounds" />
          </mxGeometry>
        </mxCell>
        <mxCell id="YktuZhn3uDdsjPysNcHp-653" value="SourceId (StoryId&lt;span style=&quot;background-color: transparent; color: light-dark(rgb(0, 0, 0), rgb(255, 255, 255));&quot;&gt;)&lt;/span&gt;" style="shape=partialRectangle;connectable=0;fillColor=#dae8fc;top=0;left=0;bottom=0;right=0;align=left;spacingLeft=6;fontStyle=1;overflow=hidden;html=1;whiteSpace=wrap;strokeColor=#6c8ebf;" vertex="1" parent="YktuZhn3uDdsjPysNcHp-651">
          <mxGeometry x="60" width="150" height="42" as="geometry">
            <mxRectangle width="150" height="42" as="alternateBounds" />
          </mxGeometry>
        </mxCell>
        <mxCell id="YktuZhn3uDdsjPysNcHp-654" value="" style="shape=tableRow;horizontal=0;startSize=0;swimlaneHead=0;swimlaneBody=0;fillColor=none;collapsible=0;dropTarget=0;points=[[0,0.5],[1,0.5]];portConstraint=eastwest;top=0;left=0;right=0;bottom=1;html=1;" vertex="1" parent="YktuZhn3uDdsjPysNcHp-644">
          <mxGeometry y="132" width="210" height="42" as="geometry" />
        </mxCell>
        <mxCell id="YktuZhn3uDdsjPysNcHp-655" value="" style="shape=partialRectangle;connectable=0;fillColor=#f5f5f5;top=0;left=0;bottom=0;right=0;fontStyle=1;overflow=hidden;html=1;whiteSpace=wrap;strokeColor=#666666;fontColor=#333333;" vertex="1" parent="YktuZhn3uDdsjPysNcHp-654">
          <mxGeometry width="60" height="42" as="geometry">
            <mxRectangle width="60" height="42" as="alternateBounds" />
          </mxGeometry>
        </mxCell>
        <mxCell id="YktuZhn3uDdsjPysNcHp-656" value="&lt;span style=&quot;font-weight: normal;&quot;&gt;Instance&amp;nbsp;(Replay)&lt;/span&gt;" style="shape=partialRectangle;connectable=0;fillColor=#f5f5f5;top=0;left=0;bottom=0;right=0;align=left;spacingLeft=6;fontStyle=1;overflow=hidden;html=1;whiteSpace=wrap;strokeColor=#666666;fontColor=#333333;" vertex="1" parent="YktuZhn3uDdsjPysNcHp-654">
          <mxGeometry x="60" width="150" height="42" as="geometry">
            <mxRectangle width="150" height="42" as="alternateBounds" />
          </mxGeometry>
        </mxCell>
        <mxCell id="YktuZhn3uDdsjPysNcHp-657" value="" style="shape=tableRow;horizontal=0;startSize=0;swimlaneHead=0;swimlaneBody=0;fillColor=none;collapsible=0;dropTarget=0;points=[[0,0.5],[1,0.5]];portConstraint=eastwest;top=0;left=0;right=0;bottom=1;html=1;" vertex="1" parent="YktuZhn3uDdsjPysNcHp-644">
          <mxGeometry y="174" width="210" height="42" as="geometry" />
        </mxCell>
        <mxCell id="YktuZhn3uDdsjPysNcHp-658" value="" style="shape=partialRectangle;connectable=0;fillColor=#f5f5f5;top=0;left=0;bottom=0;right=0;fontStyle=1;overflow=hidden;html=1;whiteSpace=wrap;strokeColor=#666666;fontColor=#333333;" vertex="1" parent="YktuZhn3uDdsjPysNcHp-657">
          <mxGeometry width="60" height="42" as="geometry">
            <mxRectangle width="60" height="42" as="alternateBounds" />
          </mxGeometry>
        </mxCell>
        <mxCell id="YktuZhn3uDdsjPysNcHp-659" value="&lt;span style=&quot;font-weight: normal;&quot;&gt;Text&lt;/span&gt;" style="shape=partialRectangle;connectable=0;fillColor=#f5f5f5;top=0;left=0;bottom=0;right=0;align=left;spacingLeft=6;fontStyle=1;overflow=hidden;html=1;whiteSpace=wrap;strokeColor=#666666;fontColor=#333333;" vertex="1" parent="YktuZhn3uDdsjPysNcHp-657">
          <mxGeometry x="60" width="150" height="42" as="geometry">
            <mxRectangle width="150" height="42" as="alternateBounds" />
          </mxGeometry>
        </mxCell>
        <mxCell id="YktuZhn3uDdsjPysNcHp-660" value="" style="shape=tableRow;horizontal=0;startSize=0;swimlaneHead=0;swimlaneBody=0;fillColor=none;collapsible=0;dropTarget=0;points=[[0,0.5],[1,0.5]];portConstraint=eastwest;top=0;left=0;right=0;bottom=1;html=1;" vertex="1" parent="YktuZhn3uDdsjPysNcHp-644">
          <mxGeometry y="216" width="210" height="42" as="geometry" />
        </mxCell>
        <mxCell id="YktuZhn3uDdsjPysNcHp-661" value="" style="shape=partialRectangle;connectable=0;fillColor=#f5f5f5;top=0;left=0;bottom=0;right=0;fontStyle=1;overflow=hidden;html=1;whiteSpace=wrap;strokeColor=#666666;fontColor=#333333;" vertex="1" parent="YktuZhn3uDdsjPysNcHp-660">
          <mxGeometry width="60" height="42" as="geometry">
            <mxRectangle width="60" height="42" as="alternateBounds" />
          </mxGeometry>
        </mxCell>
        <mxCell id="YktuZhn3uDdsjPysNcHp-662" value="&lt;span style=&quot;font-weight: normal;&quot;&gt;Image&lt;/span&gt;" style="shape=partialRectangle;connectable=0;fillColor=#f5f5f5;top=0;left=0;bottom=0;right=0;align=left;spacingLeft=6;fontStyle=1;overflow=hidden;html=1;whiteSpace=wrap;strokeColor=#666666;fontColor=#333333;" vertex="1" parent="YktuZhn3uDdsjPysNcHp-660">
          <mxGeometry x="60" width="150" height="42" as="geometry">
            <mxRectangle width="150" height="42" as="alternateBounds" />
          </mxGeometry>
        </mxCell>
        <mxCell id="YktuZhn3uDdsjPysNcHp-663" value="" style="shape=tableRow;horizontal=0;startSize=0;swimlaneHead=0;swimlaneBody=0;fillColor=none;collapsible=0;dropTarget=0;points=[[0,0.5],[1,0.5]];portConstraint=eastwest;top=0;left=0;right=0;bottom=1;html=1;" vertex="1" parent="YktuZhn3uDdsjPysNcHp-644">
          <mxGeometry y="258" width="210" height="42" as="geometry" />
        </mxCell>
        <mxCell id="YktuZhn3uDdsjPysNcHp-664" value="" style="shape=partialRectangle;connectable=0;fillColor=#f5f5f5;top=0;left=0;bottom=0;right=0;fontStyle=1;overflow=hidden;html=1;whiteSpace=wrap;strokeColor=#666666;fontColor=#333333;" vertex="1" parent="YktuZhn3uDdsjPysNcHp-663">
          <mxGeometry width="60" height="42" as="geometry">
            <mxRectangle width="60" height="42" as="alternateBounds" />
          </mxGeometry>
        </mxCell>
        <mxCell id="YktuZhn3uDdsjPysNcHp-665" value="Imoji" style="shape=partialRectangle;connectable=0;fillColor=#f5f5f5;top=0;left=0;bottom=0;right=0;align=left;spacingLeft=6;fontStyle=0;overflow=hidden;html=1;whiteSpace=wrap;strokeColor=#666666;fontColor=#333333;" vertex="1" parent="YktuZhn3uDdsjPysNcHp-663">
          <mxGeometry x="60" width="150" height="42" as="geometry">
            <mxRectangle width="150" height="42" as="alternateBounds" />
          </mxGeometry>
        </mxCell>
        <mxCell id="YktuZhn3uDdsjPysNcHp-668" style="edgeStyle=orthogonalEdgeStyle;rounded=0;orthogonalLoop=1;jettySize=auto;html=1;exitX=1;exitY=0.5;exitDx=0;exitDy=0;entryX=0;entryY=0.5;entryDx=0;entryDy=0;" edge="1" parent="1" source="YktuZhn3uDdsjPysNcHp-667" target="YktuZhn3uDdsjPysNcHp-626">
          <mxGeometry relative="1" as="geometry" />
        </mxCell>
        <mxCell id="YktuZhn3uDdsjPysNcHp-667" value="Viewer" style="shape=rhombus;perimeter=rhombusPerimeter;whiteSpace=wrap;html=1;align=center;" vertex="1" parent="1">
          <mxGeometry x="1170" y="1380" width="110" height="50" as="geometry" />
        </mxCell>
        <mxCell id="YktuZhn3uDdsjPysNcHp-669" style="edgeStyle=orthogonalEdgeStyle;rounded=0;orthogonalLoop=1;jettySize=auto;html=1;exitX=1;exitY=0.5;exitDx=0;exitDy=0;entryX=0;entryY=0.5;entryDx=0;entryDy=0;" edge="1" parent="1" source="YktuZhn3uDdsjPysNcHp-613" target="YktuZhn3uDdsjPysNcHp-667">
          <mxGeometry relative="1" as="geometry" />
        </mxCell>
        <mxCell id="YktuZhn3uDdsjPysNcHp-671" style="edgeStyle=orthogonalEdgeStyle;rounded=0;orthogonalLoop=1;jettySize=auto;html=1;exitX=0.5;exitY=0;exitDx=0;exitDy=0;entryX=1;entryY=0.5;entryDx=0;entryDy=0;" edge="1" parent="1" source="YktuZhn3uDdsjPysNcHp-670" target="YktuZhn3uDdsjPysNcHp-641">
          <mxGeometry relative="1" as="geometry" />
        </mxCell>
        <mxCell id="YktuZhn3uDdsjPysNcHp-670" value="Replay" style="shape=rhombus;perimeter=rhombusPerimeter;whiteSpace=wrap;html=1;align=center;" vertex="1" parent="1">
          <mxGeometry x="1440" y="1500" width="110" height="50" as="geometry" />
        </mxCell>
        <mxCell id="YktuZhn3uDdsjPysNcHp-679" style="edgeStyle=orthogonalEdgeStyle;rounded=0;orthogonalLoop=1;jettySize=auto;html=1;exitX=0.5;exitY=1;exitDx=0;exitDy=0;entryX=0.015;entryY=0.063;entryDx=0;entryDy=0;entryPerimeter=0;" edge="1" parent="1" source="YktuZhn3uDdsjPysNcHp-670" target="YktuZhn3uDdsjPysNcHp-651">
          <mxGeometry relative="1" as="geometry">
            <Array as="points">
              <mxPoint x="1495" y="1600" />
              <mxPoint x="1390" y="1600" />
              <mxPoint x="1390" y="1713" />
            </Array>
          </mxGeometry>
        </mxCell>
        <mxCell id="YktuZhn3uDdsjPysNcHp-681" style="edgeStyle=orthogonalEdgeStyle;rounded=0;orthogonalLoop=1;jettySize=auto;html=1;exitX=0.5;exitY=0;exitDx=0;exitDy=0;entryX=0.5;entryY=1;entryDx=0;entryDy=0;" edge="1" parent="1" source="YktuZhn3uDdsjPysNcHp-680" target="YktuZhn3uDdsjPysNcHp-340">
          <mxGeometry relative="1" as="geometry">
            <Array as="points">
              <mxPoint x="750" y="1040" />
              <mxPoint x="763" y="1040" />
            </Array>
          </mxGeometry>
        </mxCell>
        <mxCell id="YktuZhn3uDdsjPysNcHp-685" style="edgeStyle=orthogonalEdgeStyle;rounded=0;orthogonalLoop=1;jettySize=auto;html=1;exitX=0.5;exitY=1;exitDx=0;exitDy=0;entryX=0;entryY=0.5;entryDx=0;entryDy=0;" edge="1" parent="1" source="YktuZhn3uDdsjPysNcHp-680" target="YktuZhn3uDdsjPysNcHp-533">
          <mxGeometry relative="1" as="geometry">
            <mxPoint x="440" y="1280" as="targetPoint" />
            <Array as="points">
              <mxPoint x="410" y="1150" />
              <mxPoint x="410" y="1281" />
            </Array>
          </mxGeometry>
        </mxCell>
        <mxCell id="YktuZhn3uDdsjPysNcHp-680" value="Comment" style="shape=rhombus;perimeter=rhombusPerimeter;whiteSpace=wrap;html=1;align=center;" vertex="1" parent="1">
          <mxGeometry x="710" y="1100" width="80" height="50" as="geometry" />
        </mxCell>
        <mxCell id="YktuZhn3uDdsjPysNcHp-683" style="edgeStyle=orthogonalEdgeStyle;rounded=0;orthogonalLoop=1;jettySize=auto;html=1;exitX=0;exitY=0.5;exitDx=0;exitDy=0;" edge="1" parent="1" source="YktuZhn3uDdsjPysNcHp-397">
          <mxGeometry relative="1" as="geometry">
            <mxPoint x="760" y="1040" as="targetPoint" />
          </mxGeometry>
        </mxCell>
        <mxCell id="YktuZhn3uDdsjPysNcHp-686" value="" style="edgeStyle=elbowEdgeStyle;elbow=horizontal;endArrow=classic;html=1;curved=0;rounded=0;endSize=8;startSize=8;" edge="1" parent="1">
          <mxGeometry width="50" height="50" relative="1" as="geometry">
            <mxPoint x="560" y="150" as="sourcePoint" />
            <mxPoint x="-60" y="120" as="targetPoint" />
            <Array as="points">
              <mxPoint x="560" y="90" />
              <mxPoint x="45.47" y="60" />
              <mxPoint x="555.47" y="40" />
            </Array>
          </mxGeometry>
        </mxCell>
        <mxCell id="YktuZhn3uDdsjPysNcHp-688" value="" style="line;strokeWidth=2;direction=south;html=1;" vertex="1" parent="1">
          <mxGeometry x="-60" y="125" width="10" height="1390" as="geometry" />
        </mxCell>
        <mxCell id="YktuZhn3uDdsjPysNcHp-690" style="edgeStyle=orthogonalEdgeStyle;rounded=0;orthogonalLoop=1;jettySize=auto;html=1;exitX=0.5;exitY=0;exitDx=0;exitDy=0;" edge="1" parent="1" source="YktuZhn3uDdsjPysNcHp-689" target="YktuZhn3uDdsjPysNcHp-504">
          <mxGeometry relative="1" as="geometry" />
        </mxCell>
        <mxCell id="YktuZhn3uDdsjPysNcHp-689" value="Emoji" style="shape=rhombus;perimeter=rhombusPerimeter;whiteSpace=wrap;html=1;align=center;" vertex="1" parent="1">
          <mxGeometry y="1200" width="80" height="60" as="geometry" />
        </mxCell>
        <mxCell id="YktuZhn3uDdsjPysNcHp-691" style="edgeStyle=orthogonalEdgeStyle;rounded=0;orthogonalLoop=1;jettySize=auto;html=1;exitX=0;exitY=0.5;exitDx=0;exitDy=0;entryX=0.806;entryY=0.371;entryDx=0;entryDy=0;entryPerimeter=0;" edge="1" parent="1" source="YktuZhn3uDdsjPysNcHp-689" target="YktuZhn3uDdsjPysNcHp-688">
          <mxGeometry relative="1" as="geometry" />
        </mxCell>
        <mxCell id="YktuZhn3uDdsjPysNcHp-693" value="" style="line;strokeWidth=4;html=1;perimeter=backbonePerimeter;points=[];outlineConnect=0;" vertex="1" parent="1">
          <mxGeometry x="-50" y="1505" width="859" height="10" as="geometry" />
        </mxCell>
        <mxCell id="YktuZhn3uDdsjPysNcHp-695" style="edgeStyle=orthogonalEdgeStyle;rounded=0;orthogonalLoop=1;jettySize=auto;html=1;exitX=0.5;exitY=1;exitDx=0;exitDy=0;" edge="1" parent="1" source="YktuZhn3uDdsjPysNcHp-694" target="YktuZhn3uDdsjPysNcHp-693">
          <mxGeometry relative="1" as="geometry">
            <Array as="points">
              <mxPoint x="740" y="1456" />
              <mxPoint x="710" y="1456" />
            </Array>
          </mxGeometry>
        </mxCell>
        <mxCell id="YktuZhn3uDdsjPysNcHp-696" style="edgeStyle=orthogonalEdgeStyle;rounded=0;orthogonalLoop=1;jettySize=auto;html=1;exitX=0.5;exitY=0;exitDx=0;exitDy=0;entryX=1;entryY=0.5;entryDx=0;entryDy=0;" edge="1" parent="1" source="YktuZhn3uDdsjPysNcHp-694" target="YktuZhn3uDdsjPysNcHp-527">
          <mxGeometry relative="1" as="geometry" />
        </mxCell>
        <mxCell id="YktuZhn3uDdsjPysNcHp-694" value="Comment" style="shape=rhombus;perimeter=rhombusPerimeter;whiteSpace=wrap;html=1;align=center;" vertex="1" parent="1">
          <mxGeometry x="700" y="1346" width="80" height="60" as="geometry" />
        </mxCell>
        <mxCell id="YktuZhn3uDdsjPysNcHp-698" value="" style="line;strokeWidth=4;direction=south;html=1;perimeter=backbonePerimeter;points=[];outlineConnect=0;" vertex="1" parent="1">
          <mxGeometry x="809" y="1190" width="10" height="330" as="geometry" />
        </mxCell>
        <mxCell id="YktuZhn3uDdsjPysNcHp-700" value="" style="line;strokeWidth=4;html=1;perimeter=backbonePerimeter;points=[];outlineConnect=0;" vertex="1" parent="1">
          <mxGeometry x="815" y="1190" width="555" height="10" as="geometry" />
        </mxCell>
        <mxCell id="YktuZhn3uDdsjPysNcHp-703" style="edgeStyle=orthogonalEdgeStyle;rounded=0;orthogonalLoop=1;jettySize=auto;html=1;exitX=0.5;exitY=1;exitDx=0;exitDy=0;entryX=1;entryY=0.5;entryDx=0;entryDy=0;" edge="1" parent="1" source="YktuZhn3uDdsjPysNcHp-702" target="YktuZhn3uDdsjPysNcHp-629">
          <mxGeometry relative="1" as="geometry" />
        </mxCell>
        <mxCell id="YktuZhn3uDdsjPysNcHp-702" value="Viewer" style="shape=rhombus;perimeter=rhombusPerimeter;whiteSpace=wrap;html=1;align=center;" vertex="1" parent="1">
          <mxGeometry x="1370" y="1170" width="110" height="50" as="geometry" />
        </mxCell>
        <mxCell id="YktuZhn3uDdsjPysNcHp-706" style="edgeStyle=orthogonalEdgeStyle;rounded=0;orthogonalLoop=1;jettySize=auto;html=1;exitX=0.5;exitY=0;exitDx=0;exitDy=0;" edge="1" parent="1" source="YktuZhn3uDdsjPysNcHp-704" target="YktuZhn3uDdsjPysNcHp-698">
          <mxGeometry relative="1" as="geometry">
            <Array as="points">
              <mxPoint x="915" y="1210" />
              <mxPoint x="839" y="1210" />
              <mxPoint x="839" y="1240" />
            </Array>
          </mxGeometry>
        </mxCell>
        <mxCell id="YktuZhn3uDdsjPysNcHp-707" style="edgeStyle=orthogonalEdgeStyle;rounded=0;orthogonalLoop=1;jettySize=auto;html=1;exitX=0;exitY=0.5;exitDx=0;exitDy=0;entryX=0;entryY=0.5;entryDx=0;entryDy=0;" edge="1" parent="1" source="YktuZhn3uDdsjPysNcHp-704" target="YktuZhn3uDdsjPysNcHp-604">
          <mxGeometry relative="1" as="geometry" />
        </mxCell>
        <mxCell id="YktuZhn3uDdsjPysNcHp-704" value="Author" style="shape=rhombus;perimeter=rhombusPerimeter;whiteSpace=wrap;html=1;align=center;" vertex="1" parent="1">
          <mxGeometry x="860" y="1230" width="110" height="50" as="geometry" />
        </mxCell>
        <mxCell id="YktuZhn3uDdsjPysNcHp-708" value="&lt;b&gt;&lt;font style=&quot;font-size: 13px;&quot;&gt;1..1&lt;/font&gt;&lt;/b&gt;" style="text;html=1;align=center;verticalAlign=middle;resizable=0;points=[];autosize=1;strokeColor=none;fillColor=none;" vertex="1" parent="1">
          <mxGeometry x="330" y="210" width="50" height="30" as="geometry" />
        </mxCell>
        <mxCell id="YktuZhn3uDdsjPysNcHp-709" value="&lt;h4&gt;&lt;font style=&quot;font-size: 47px;&quot;&gt;&lt;b&gt;Design By Morsalin Islam&lt;/b&gt;&lt;/font&gt;&lt;/h4&gt;" style="text;html=1;align=center;verticalAlign=middle;resizable=0;points=[];autosize=1;strokeColor=none;fillColor=none;fontColor=#009999;" vertex="1" parent="1">
          <mxGeometry x="92.5" y="-50" width="590" height="100" as="geometry" />
        </mxCell>
        <mxCell id="YktuZhn3uDdsjPysNcHp-710" value="&lt;b&gt;&lt;font style=&quot;font-size: 13px;&quot;&gt;1..1&lt;/font&gt;&lt;/b&gt;" style="text;html=1;align=center;verticalAlign=middle;resizable=0;points=[];autosize=1;strokeColor=none;fillColor=none;" vertex="1" parent="1">
          <mxGeometry x="400" y="210" width="50" height="30" as="geometry" />
        </mxCell>
        <mxCell id="YktuZhn3uDdsjPysNcHp-711" value="&lt;b&gt;&lt;font style=&quot;font-size: 13px;&quot;&gt;1..1&lt;/font&gt;&lt;/b&gt;" style="text;html=1;align=center;verticalAlign=middle;resizable=0;points=[];autosize=1;strokeColor=none;fillColor=none;" vertex="1" parent="1">
          <mxGeometry x="630" y="230" width="50" height="30" as="geometry" />
        </mxCell>
        <mxCell id="YktuZhn3uDdsjPysNcHp-712" value="&lt;b&gt;&lt;font style=&quot;font-size: 13px;&quot;&gt;1..1&lt;/font&gt;&lt;/b&gt;" style="text;html=1;align=center;verticalAlign=middle;resizable=0;points=[];autosize=1;strokeColor=none;fillColor=none;" vertex="1" parent="1">
          <mxGeometry x="680" y="170" width="50" height="30" as="geometry" />
        </mxCell>
        <mxCell id="YktuZhn3uDdsjPysNcHp-713" value="&lt;b&gt;&lt;font style=&quot;font-size: 13px;&quot;&gt;1..N&lt;/font&gt;&lt;/b&gt;" style="text;html=1;align=center;verticalAlign=middle;resizable=0;points=[];autosize=1;strokeColor=none;fillColor=none;" vertex="1" parent="1">
          <mxGeometry x="930" y="270" width="50" height="30" as="geometry" />
        </mxCell>
        <mxCell id="YktuZhn3uDdsjPysNcHp-714" value="&lt;b&gt;&lt;font style=&quot;font-size: 13px;&quot;&gt;N..1&lt;/font&gt;&lt;/b&gt;" style="text;html=1;align=center;verticalAlign=middle;resizable=0;points=[];autosize=1;strokeColor=none;fillColor=none;" vertex="1" parent="1">
          <mxGeometry x="1090" y="140" width="50" height="30" as="geometry" />
        </mxCell>
        <mxCell id="YktuZhn3uDdsjPysNcHp-715" value="&lt;b&gt;&lt;font style=&quot;font-size: 13px;&quot;&gt;N..1&lt;/font&gt;&lt;/b&gt;" style="text;html=1;align=center;verticalAlign=middle;resizable=0;points=[];autosize=1;strokeColor=none;fillColor=none;" vertex="1" parent="1">
          <mxGeometry x="1100" y="670" width="50" height="30" as="geometry" />
        </mxCell>
        <mxCell id="YktuZhn3uDdsjPysNcHp-716" value="&lt;b&gt;&lt;font style=&quot;font-size: 13px;&quot;&gt;N..1&lt;/font&gt;&lt;/b&gt;" style="text;html=1;align=center;verticalAlign=middle;resizable=0;points=[];autosize=1;strokeColor=none;fillColor=none;" vertex="1" parent="1">
          <mxGeometry x="1105" y="395" width="50" height="30" as="geometry" />
        </mxCell>
        <mxCell id="YktuZhn3uDdsjPysNcHp-717" value="&lt;b&gt;&lt;font style=&quot;font-size: 13px;&quot;&gt;1..N&lt;/font&gt;&lt;/b&gt;" style="text;html=1;align=center;verticalAlign=middle;resizable=0;points=[];autosize=1;strokeColor=none;fillColor=none;" vertex="1" parent="1">
          <mxGeometry x="480" y="340" width="50" height="30" as="geometry" />
        </mxCell>
        <mxCell id="YktuZhn3uDdsjPysNcHp-718" value="&lt;b&gt;&lt;font style=&quot;font-size: 13px;&quot;&gt;N..1&lt;/font&gt;&lt;/b&gt;" style="text;html=1;align=center;verticalAlign=middle;resizable=0;points=[];autosize=1;strokeColor=none;fillColor=none;" vertex="1" parent="1">
          <mxGeometry x="450" y="490" width="50" height="30" as="geometry" />
        </mxCell>
        <mxCell id="YktuZhn3uDdsjPysNcHp-720" value="&lt;b&gt;&lt;font style=&quot;font-size: 13px;&quot;&gt;1..N&lt;/font&gt;&lt;/b&gt;" style="text;html=1;align=center;verticalAlign=middle;resizable=0;points=[];autosize=1;strokeColor=none;fillColor=none;" vertex="1" parent="1">
          <mxGeometry x="410" y="570" width="50" height="30" as="geometry" />
        </mxCell>
        <mxCell id="YktuZhn3uDdsjPysNcHp-721" value="&lt;b&gt;&lt;font style=&quot;font-size: 13px;&quot;&gt;N..1&lt;/font&gt;&lt;/b&gt;" style="text;html=1;align=center;verticalAlign=middle;resizable=0;points=[];autosize=1;strokeColor=none;fillColor=none;" vertex="1" parent="1">
          <mxGeometry x="185" y="450" width="50" height="30" as="geometry" />
        </mxCell>
        <mxCell id="YktuZhn3uDdsjPysNcHp-722" value="&lt;b&gt;&lt;font style=&quot;font-size: 13px;&quot;&gt;1..N&lt;/font&gt;&lt;/b&gt;" style="text;html=1;align=center;verticalAlign=middle;resizable=0;points=[];autosize=1;strokeColor=none;fillColor=none;" vertex="1" parent="1">
          <mxGeometry x="620" y="340" width="50" height="30" as="geometry" />
        </mxCell>
        <mxCell id="YktuZhn3uDdsjPysNcHp-723" value="&lt;b&gt;&lt;font style=&quot;font-size: 13px;&quot;&gt;N..1&lt;/font&gt;&lt;/b&gt;" style="text;html=1;align=center;verticalAlign=middle;resizable=0;points=[];autosize=1;strokeColor=none;fillColor=none;" vertex="1" parent="1">
          <mxGeometry x="610" y="810" width="50" height="30" as="geometry" />
        </mxCell>
        <mxCell id="YktuZhn3uDdsjPysNcHp-724" value="&lt;b&gt;&lt;font style=&quot;font-size: 13px;&quot;&gt;N..N&lt;/font&gt;&lt;/b&gt;" style="text;html=1;align=center;verticalAlign=middle;resizable=0;points=[];autosize=1;strokeColor=none;fillColor=none;" vertex="1" parent="1">
          <mxGeometry x="1560" y="1350" width="50" height="30" as="geometry" />
        </mxCell>
        <mxCell id="YktuZhn3uDdsjPysNcHp-725" value="&lt;b&gt;&lt;font style=&quot;font-size: 13px;&quot;&gt;N..1&lt;/font&gt;&lt;/b&gt;" style="text;html=1;align=center;verticalAlign=middle;resizable=0;points=[];autosize=1;strokeColor=none;fillColor=none;" vertex="1" parent="1">
          <mxGeometry x="500" y="910" width="50" height="30" as="geometry" />
        </mxCell>
        <mxCell id="YktuZhn3uDdsjPysNcHp-726" value="&lt;b&gt;&lt;font style=&quot;font-size: 13px;&quot;&gt;N..1&lt;/font&gt;&lt;/b&gt;" style="text;html=1;align=center;verticalAlign=middle;resizable=0;points=[];autosize=1;strokeColor=none;fillColor=none;" vertex="1" parent="1">
          <mxGeometry x="1005" y="800" width="50" height="30" as="geometry" />
        </mxCell>
        <mxCell id="YktuZhn3uDdsjPysNcHp-727" value="&lt;b&gt;&lt;font style=&quot;font-size: 13px;&quot;&gt;N..1&lt;/font&gt;&lt;/b&gt;" style="text;html=1;align=center;verticalAlign=middle;resizable=0;points=[];autosize=1;strokeColor=none;fillColor=none;" vertex="1" parent="1">
          <mxGeometry x="500" y="760" width="50" height="30" as="geometry" />
        </mxCell>
        <mxCell id="YktuZhn3uDdsjPysNcHp-731" value="&lt;b&gt;&lt;font style=&quot;font-size: 13px;&quot;&gt;1..N&lt;/font&gt;&lt;/b&gt;" style="text;html=1;align=center;verticalAlign=middle;resizable=0;points=[];autosize=1;strokeColor=none;fillColor=none;" vertex="1" parent="1">
          <mxGeometry x="610" y="910" width="50" height="30" as="geometry" />
        </mxCell>
        <mxCell id="YktuZhn3uDdsjPysNcHp-732" value="&lt;b&gt;&lt;font style=&quot;font-size: 13px;&quot;&gt;N..1&lt;/font&gt;&lt;/b&gt;" style="text;html=1;align=center;verticalAlign=middle;resizable=0;points=[];autosize=1;strokeColor=none;fillColor=none;" vertex="1" parent="1">
          <mxGeometry x="675" y="1210" width="50" height="30" as="geometry" />
        </mxCell>
        <mxCell id="YktuZhn3uDdsjPysNcHp-733" value="&lt;b&gt;&lt;font style=&quot;font-size: 13px;&quot;&gt;N..1&lt;/font&gt;&lt;/b&gt;" style="text;html=1;align=center;verticalAlign=middle;resizable=0;points=[];autosize=1;strokeColor=none;fillColor=none;" vertex="1" parent="1">
          <mxGeometry x="210" y="1200" width="50" height="30" as="geometry" />
        </mxCell>
        <mxCell id="YktuZhn3uDdsjPysNcHp-734" value="&lt;b&gt;&lt;font style=&quot;font-size: 13px;&quot;&gt;N..1&lt;/font&gt;&lt;/b&gt;" style="text;html=1;align=center;verticalAlign=middle;resizable=0;points=[];autosize=1;strokeColor=none;fillColor=none;" vertex="1" parent="1">
          <mxGeometry x="51" y="1120" width="50" height="30" as="geometry" />
        </mxCell>
        <mxCell id="YktuZhn3uDdsjPysNcHp-737" value="&lt;b&gt;&lt;font style=&quot;font-size: 13px;&quot;&gt;1..N&lt;/font&gt;&lt;/b&gt;" style="text;html=1;align=center;verticalAlign=middle;resizable=0;points=[];autosize=1;strokeColor=none;fillColor=none;" vertex="1" parent="1">
          <mxGeometry x="900" y="1040" width="50" height="30" as="geometry" />
        </mxCell>
        <mxCell id="YktuZhn3uDdsjPysNcHp-738" value="&lt;b&gt;&lt;font style=&quot;font-size: 13px;&quot;&gt;1..N&lt;/font&gt;&lt;/b&gt;" style="text;html=1;align=center;verticalAlign=middle;resizable=0;points=[];autosize=1;strokeColor=none;fillColor=none;" vertex="1" parent="1">
          <mxGeometry x="725" y="1470" width="50" height="30" as="geometry" />
        </mxCell>
        <mxCell id="YktuZhn3uDdsjPysNcHp-739" value="&lt;b&gt;&lt;font style=&quot;font-size: 13px;&quot;&gt;1..N&lt;/font&gt;&lt;/b&gt;" style="text;html=1;align=center;verticalAlign=middle;resizable=0;points=[];autosize=1;strokeColor=none;fillColor=none;" vertex="1" parent="1">
          <mxGeometry x="375" y="1412" width="50" height="30" as="geometry" />
        </mxCell>
        <mxCell id="YktuZhn3uDdsjPysNcHp-740" value="&lt;b&gt;&lt;font style=&quot;font-size: 13px;&quot;&gt;1..N&lt;/font&gt;&lt;/b&gt;" style="text;html=1;align=center;verticalAlign=middle;resizable=0;points=[];autosize=1;strokeColor=none;fillColor=none;" vertex="1" parent="1">
          <mxGeometry x="-40" y="1260" width="50" height="30" as="geometry" />
        </mxCell>
        <mxCell id="YktuZhn3uDdsjPysNcHp-741" value="&lt;b&gt;&lt;font style=&quot;font-size: 13px;&quot;&gt;1..N&lt;/font&gt;&lt;/b&gt;" style="text;html=1;align=center;verticalAlign=middle;resizable=0;points=[];autosize=1;strokeColor=none;fillColor=none;" vertex="1" parent="1">
          <mxGeometry x="380" y="930" width="50" height="30" as="geometry" />
        </mxCell>
        <mxCell id="YktuZhn3uDdsjPysNcHp-742" value="&lt;b&gt;&lt;font style=&quot;font-size: 13px;&quot;&gt;1..N&lt;/font&gt;&lt;/b&gt;" style="text;html=1;align=center;verticalAlign=middle;resizable=0;points=[];autosize=1;strokeColor=none;fillColor=none;" vertex="1" parent="1">
          <mxGeometry x="775" y="990" width="50" height="30" as="geometry" />
        </mxCell>
        <mxCell id="YktuZhn3uDdsjPysNcHp-744" value="&lt;b&gt;&lt;font style=&quot;font-size: 13px;&quot;&gt;N..1&lt;/font&gt;&lt;/b&gt;" style="text;html=1;align=center;verticalAlign=middle;resizable=0;points=[];autosize=1;strokeColor=none;fillColor=none;" vertex="1" parent="1">
          <mxGeometry x="410" y="1240" width="50" height="30" as="geometry" />
        </mxCell>
        <mxCell id="YktuZhn3uDdsjPysNcHp-745" value="&lt;b&gt;&lt;font style=&quot;font-size: 13px;&quot;&gt;N..N&lt;/font&gt;&lt;/b&gt;" style="text;html=1;align=center;verticalAlign=middle;resizable=0;points=[];autosize=1;strokeColor=none;fillColor=none;" vertex="1" parent="1">
          <mxGeometry x="1430" y="1230" width="50" height="30" as="geometry" />
        </mxCell>
        <mxCell id="YktuZhn3uDdsjPysNcHp-746" value="&lt;b&gt;&lt;font style=&quot;font-size: 13px;&quot;&gt;1..N&lt;/font&gt;&lt;/b&gt;" style="text;html=1;align=center;verticalAlign=middle;resizable=0;points=[];autosize=1;strokeColor=none;fillColor=none;" vertex="1" parent="1">
          <mxGeometry x="1120" y="1361" width="50" height="30" as="geometry" />
        </mxCell>
        <mxCell id="YktuZhn3uDdsjPysNcHp-747" value="&lt;b&gt;&lt;font style=&quot;font-size: 13px;&quot;&gt;1..N&lt;/font&gt;&lt;/b&gt;" style="text;html=1;align=center;verticalAlign=middle;resizable=0;points=[];autosize=1;strokeColor=none;fillColor=none;" vertex="1" parent="1">
          <mxGeometry x="840" y="1220" width="50" height="30" as="geometry" />
        </mxCell>
        <mxCell id="YktuZhn3uDdsjPysNcHp-748" value="&lt;b&gt;&lt;font style=&quot;font-size: 13px;&quot;&gt;N..1&lt;/font&gt;&lt;/b&gt;" style="text;html=1;align=center;verticalAlign=middle;resizable=0;points=[];autosize=1;strokeColor=none;fillColor=none;" vertex="1" parent="1">
          <mxGeometry x="1270" y="1316" width="50" height="30" as="geometry" />
        </mxCell>
        <mxCell id="YktuZhn3uDdsjPysNcHp-749" value="&lt;b&gt;&lt;font style=&quot;font-size: 13px;&quot;&gt;N..1&lt;/font&gt;&lt;/b&gt;" style="text;html=1;align=center;verticalAlign=middle;resizable=0;points=[];autosize=1;strokeColor=none;fillColor=none;" vertex="1" parent="1">
          <mxGeometry x="852" y="1350" width="50" height="30" as="geometry" />
        </mxCell>
        <mxCell id="YktuZhn3uDdsjPysNcHp-750" value="&lt;b&gt;&lt;font style=&quot;font-size: 13px;&quot;&gt;1..N&lt;/font&gt;&lt;/b&gt;" style="text;html=1;align=center;verticalAlign=middle;resizable=0;points=[];autosize=1;strokeColor=none;fillColor=none;" vertex="1" parent="1">
          <mxGeometry x="1560" y="1406" width="50" height="30" as="geometry" />
        </mxCell>
        <mxCell id="YktuZhn3uDdsjPysNcHp-751" value="&lt;b&gt;&lt;font style=&quot;font-size: 13px;&quot;&gt;N..1&lt;/font&gt;&lt;/b&gt;" style="text;html=1;align=center;verticalAlign=middle;resizable=0;points=[];autosize=1;strokeColor=none;fillColor=none;" vertex="1" parent="1">
          <mxGeometry x="1332" y="1670" width="50" height="30" as="geometry" />
        </mxCell>
      </root>
    </mxGraphModel>
  </diagram>
</mxfile>
